<?xml version="1.0" encoding="UTF-8"?>
<!DOCTYPE svg PUBLIC "-//W3C//DTD SVG 1.1//EN" "http://www.w3.org/Graphics/SVG/1.1/DTD/svg11.dtd">
<svg xmlns="http://www.w3.org/2000/svg" version="1.1" width="460px" height="460px" style="shape-rendering:geometricPrecision; text-rendering:geometricPrecision; image-rendering:optimizeQuality; fill-rule:evenodd; clip-rule:evenodd" xmlns:xlink="http://www.w3.org/1999/xlink">
<g><path style="opacity:1" fill="#050023" d="M -0.5,-0.5 C 152.833,-0.5 306.167,-0.5 459.5,-0.5C 459.5,2.5 459.5,5.5 459.5,8.5C 306.167,8.5 152.833,8.5 -0.5,8.5C -0.5,5.5 -0.5,2.5 -0.5,-0.5 Z"/></g>
<g><path style="opacity:1" fill="#060027" d="M -0.5,8.5 C 152.833,8.5 306.167,8.5 459.5,8.5C 459.5,10.8333 459.5,13.1667 459.5,15.5C 389.238,14.5035 318.904,14.1702 248.5,14.5C 236.5,14.5 224.5,14.5 212.5,14.5C 141.459,14.1732 70.4587,14.5065 -0.5,15.5C -0.5,13.1667 -0.5,10.8333 -0.5,8.5 Z"/></g>
<g><path style="opacity:1" fill="#070029" d="M 212.5,14.5 C 197.126,16.7492 181.793,19.7492 166.5,23.5C 110.81,23.1832 55.1437,23.5165 -0.5,24.5C -0.5,21.5 -0.5,18.5 -0.5,15.5C 70.4587,14.5065 141.459,14.1732 212.5,14.5 Z"/></g>
<g><path style="opacity:1" fill="#070636" d="M 212.5,14.5 C 224.5,14.5 236.5,14.5 248.5,14.5C 263.866,16.8439 279.199,19.8439 294.5,23.5C 304.467,26.7131 314.134,30.7131 323.5,35.5C 316.167,36.1667 308.833,36.8333 301.5,37.5C 283.486,30.8377 264.819,26.8377 245.5,25.5C 240.344,24.8339 235.011,24.5006 229.5,24.5C 221.606,24.3111 213.939,24.9778 206.5,26.5C 189.687,28.1205 173.353,31.7872 157.5,37.5C 150.352,36.5084 143.019,36.175 135.5,36.5C 137.885,34.7373 140.552,33.2373 143.5,32C 151.315,29.2323 158.982,26.399 166.5,23.5C 181.793,19.7492 197.126,16.7492 212.5,14.5 Z"/></g>
<g><path style="opacity:1" fill="#070029" d="M 248.5,14.5 C 318.904,14.1702 389.238,14.5035 459.5,15.5C 459.5,18.5 459.5,21.5 459.5,24.5C 404.53,23.5125 349.53,23.1792 294.5,23.5C 279.199,19.8439 263.866,16.8439 248.5,14.5 Z"/></g>
<g><path style="opacity:1" fill="#07002e" d="M 166.5,23.5 C 158.982,26.399 151.315,29.2323 143.5,32C 140.552,33.2373 137.885,34.7373 135.5,36.5C 131.28,37.9431 127.28,39.9431 123.5,42.5C 82.1589,43.2126 40.8256,43.8793 -0.5,44.5C -0.5,37.8333 -0.5,31.1667 -0.5,24.5C 55.1437,23.5165 110.81,23.1832 166.5,23.5 Z"/></g>
<g><path style="opacity:1" fill="#07002e" d="M 294.5,23.5 C 349.53,23.1792 404.53,23.5125 459.5,24.5C 459.5,31.1667 459.5,37.8333 459.5,44.5C 419.18,43.7077 378.847,43.2077 338.5,43C 333.583,40.0491 328.583,37.5491 323.5,35.5C 314.134,30.7131 304.467,26.7131 294.5,23.5 Z"/></g>
<g><path style="opacity:1" fill="#0d65af" d="M 245.5,25.5 C 232.482,25.3393 219.482,25.6727 206.5,26.5C 213.939,24.9778 221.606,24.3111 229.5,24.5C 235.011,24.5006 240.344,24.8339 245.5,25.5 Z"/></g>
<g><path style="opacity:1" fill="#0b84d6" d="M 245.5,25.5 C 264.819,26.8377 283.486,30.8377 301.5,37.5C 320.597,45.0495 338.597,54.7162 355.5,66.5C 422.467,122.211 447.3,193.211 430,279.5C 417.63,324.978 393.464,362.645 357.5,392.5C 340.601,404.613 322.601,414.613 303.5,422.5C 253.354,440.153 203.354,439.819 153.5,421.5C 135.983,413.405 119.317,403.738 103.5,392.5C 47.9709,346.075 21.8042,286.409 25,213.5C 31.7943,152.209 59.2943,102.543 107.5,64.5C 116.477,59.0092 125.477,53.5092 134.5,48C 142.479,44.9617 150.146,41.4617 157.5,37.5C 173.353,31.7872 189.687,28.1205 206.5,26.5C 219.482,25.6727 232.482,25.3393 245.5,25.5 Z"/></g>
<g><path style="opacity:1" fill="#060b3a" d="M 249.5,34.5 C 251.793,36.4221 254.459,37.7554 257.5,38.5C 256.833,39.8333 256.167,41.1667 255.5,42.5C 248.922,43.4601 242.255,43.7934 235.5,43.5C 235.784,41.5853 235.451,39.9187 234.5,38.5C 234.164,68.6806 233.164,98.6806 231.5,128.5C 232.159,98.1481 231.492,68.1481 229.5,38.5C 228.833,38.5 228.167,38.5 227.5,38.5C 227.167,38.5 226.833,38.5 226.5,38.5C 225.668,68.3305 225.168,98.3305 225,128.5C 224.833,98.4944 224.333,68.4944 223.5,38.5C 222.548,40.0453 222.215,41.712 222.5,43.5C 216.167,43.5 209.833,43.5 203.5,43.5C 202.925,41.5887 201.925,39.922 200.5,38.5C 199.833,37.8333 199.167,37.1667 198.5,36.5C 215.342,33.3229 232.342,32.6563 249.5,34.5 Z"/></g>
<g><path style="opacity:1" fill="#0f84d5" d="M 257.5,38.5 C 280.597,41.3107 302.263,48.3107 322.5,59.5C 331.072,64.1275 339.405,69.2942 347.5,75C 349.746,76.2568 351.079,78.0901 351.5,80.5C 351.17,83.4625 349.836,84.4625 347.5,83.5C 321.68,62.2592 292.014,49.2592 258.5,44.5C 256.821,44.7148 255.821,44.0481 255.5,42.5C 256.167,41.1667 256.833,39.8333 257.5,38.5 Z"/></g>
<g><path style="opacity:1" fill="#0f84d6" d="M 200.5,38.5 C 201.925,39.922 202.925,41.5887 203.5,43.5C 201.698,44.4582 199.698,45.1249 197.5,45.5C 176.366,49.5994 156.366,56.7661 137.5,67C 130.945,71.4388 124.279,75.6054 117.5,79.5C 117.5,77.1667 117.5,74.8333 117.5,72.5C 142.498,54.9376 170.165,43.6042 200.5,38.5 Z"/></g>
<g><path style="opacity:1" fill="#060f41" d="M 249.5,34.5 C 275.445,36.8659 299.779,44.1992 322.5,56.5C 322.5,57.5 322.5,58.5 322.5,59.5C 302.263,48.3107 280.597,41.3107 257.5,38.5C 254.459,37.7554 251.793,36.4221 249.5,34.5 Z"/></g>
<g><path style="opacity:1" fill="#080036" d="M 135.5,36.5 C 143.019,36.175 150.352,36.5084 157.5,37.5C 150.146,41.4617 142.479,44.9617 134.5,48C 125.477,53.5092 116.477,59.0092 107.5,64.5C 100.876,63.8563 94.543,64.6897 88.5,67C 24.1315,126.509 1.63146,199.676 21,286.5C 33.1277,331.061 56.961,367.728 92.5,396.5C 93.6956,396.154 93.6956,395.654 92.5,395C 96.6327,395.094 100.299,394.26 103.5,392.5C 119.317,403.738 135.983,413.405 153.5,421.5C 153.918,422.222 154.584,422.722 155.5,423C 148.987,423.172 142.653,423.672 136.5,424.5C 130.863,422.675 125.53,420.175 120.5,417C 82.8333,416.667 45.1667,416.333 7.5,416C 4.79341,415.605 2.12674,415.105 -0.5,414.5C -0.5,291.167 -0.5,167.833 -0.5,44.5C 40.8256,43.8793 82.1589,43.2126 123.5,42.5C 127.28,39.9431 131.28,37.9431 135.5,36.5 Z"/></g>
<g><path style="opacity:1" fill="#080339" d="M 203.5,43.5 C 209.833,43.5 216.167,43.5 222.5,43.5C 222.833,71.8412 222.5,100.175 221.5,128.5C 217.697,129.104 214.031,129.77 210.5,130.5C 192.777,134.028 176.777,141.361 162.5,152.5C 158.146,148.478 153.813,144.478 149.5,140.5C 148.833,139.167 147.833,138.167 146.5,137.5C 139.458,128.793 131.791,120.793 123.5,113.5C 116.204,104.702 108.37,96.3689 100,88.5C 99.5357,89.0944 99.369,89.7611 99.5,90.5C 99.0954,91.5498 98.4288,91.5498 97.5,90.5C 96.479,91.0016 96.3123,91.6683 97,92.5C 99.7663,95.7768 102.933,98.4434 106.5,100.5C 110.863,105.858 115.197,111.191 119.5,116.5C 119.167,116.5 118.833,116.5 118.5,116.5C 110.419,109.085 102.752,101.419 95.5,93.5C 95.44,92.9569 95.1067,92.6236 94.5,92.5C 93.452,93.548 92.452,94.548 91.5,95.5C 93.5002,97.671 95.3335,100.004 97,102.5C 98.7772,104.79 100.944,106.457 103.5,107.5C 103.5,109.5 104.5,110.5 106.5,110.5C 109.763,114.94 113.263,119.273 117,123.5C 117.671,124.252 118.504,124.586 119.5,124.5C 126.046,132.225 132.879,139.891 140,147.5C 141.777,149.79 143.944,151.457 146.5,152.5C 148.403,155.748 150.737,158.748 153.5,161.5C 147.75,168.418 142.583,175.751 138,183.5C 137.187,185.436 136.687,187.436 136.5,189.5C 135.21,190.058 134.377,191.058 134,192.5C 130.033,202.414 127.867,212.747 127.5,223.5C 97.5165,225.327 67.1832,226.161 36.5,226C 66.85,225.839 96.85,226.673 126.5,228.5C 6.5,229.167 6.5,229.833 126.5,230.5C 96.85,232.327 66.85,233.161 36.5,233C 66.5056,233.167 96.5056,233.667 126.5,234.5C 116.188,235.499 105.855,235.832 95.5,235.5C 75.822,235.167 56.1554,235.5 36.5,236.5C 51.1515,237.499 65.8182,237.833 80.5,237.5C 96.3422,237.17 112.009,237.504 127.5,238.5C 128.606,259.941 135.939,278.941 149.5,295.5C 142.431,301.902 135.764,308.569 129.5,315.5C 136.48,309.523 143.48,303.523 150.5,297.5C 151.521,298.002 151.688,298.668 151,299.5C 146.221,303.486 141.721,307.819 137.5,312.5C 126.137,321.2 115.804,330.867 106.5,341.5C 102.9,343.43 99.8998,346.097 97.5,349.5C 93.4105,352.083 89.7438,355.25 86.5,359C 87.1667,359.667 87.8333,359.667 88.5,359C 89.7051,357.624 91.0384,356.458 92.5,355.5C 93.1667,355.5 93.5,355.833 93.5,356.5C 92.0401,358.463 90.3734,360.296 88.5,362C 89.0944,362.464 89.7611,362.631 90.5,362.5C 90.8333,362.5 91.1667,362.5 91.5,362.5C 91.5173,364.028 92.184,364.528 93.5,364C 97.4196,360.251 101.086,356.417 104.5,352.5C 108.1,350.57 111.1,347.903 113.5,344.5C 124.419,336.06 134.419,326.727 143.5,316.5C 147.1,314.57 150.1,311.903 152.5,308.5C 154.392,307.298 156.226,305.965 158,304.5C 172.557,319.084 190.057,328.084 210.5,331.5C 214.565,332.193 218.732,332.86 223,333.5C 223.5,363.498 223.667,393.498 223.5,423.5C 222.532,421.393 222.198,419.059 222.5,416.5C 215.978,416.177 209.645,416.51 203.5,417.5C 201.435,417.483 199.435,417.15 197.5,416.5C 197.842,415.662 198.508,415.328 199.5,415.5C 201.527,415.662 203.527,415.495 205.5,415C 207.085,412.931 208.419,410.764 209.5,408.5C 210.315,407.571 211.148,406.571 212,405.5C 212.822,397.655 212.656,389.989 211.5,382.5C 211.5,380.5 211.5,378.5 211.5,376.5C 211.5,375.833 211.5,375.167 211.5,374.5C 210.169,369.18 210.169,363.847 211.5,358.5C 211.291,357.006 210.624,355.839 209.5,355C 187.327,350.74 167.327,341.906 149.5,328.5C 144.9,332.096 140.566,336.096 136.5,340.5C 136.5,341.167 136.167,341.5 135.5,341.5C 129.893,344.777 124.893,348.777 120.5,353.5C 116.478,355.522 113.478,358.522 111.5,362.5C 110.097,365.909 109.43,369.575 109.5,373.5C 108.508,373.328 107.842,373.662 107.5,374.5C 107.5,375.5 107.5,376.5 107.5,377.5C 106.833,379.167 106.167,380.833 105.5,382.5C 95.9058,375.075 87.0724,366.742 79,357.5C 74.5282,352.208 70.6948,346.541 67.5,340.5C 67.3284,339.508 67.6618,338.842 68.5,338.5C 70.8333,338.5 73.1667,338.5 75.5,338.5C 77.7354,338.795 79.7354,338.461 81.5,337.5C 88.5347,337.379 93.868,334.379 97.5,328.5C 101.745,324.759 105.911,320.759 110,316.5C 110.483,315.552 110.649,314.552 110.5,313.5C 110.5,312.833 110.833,312.5 111.5,312.5C 116.508,309.322 121.175,305.655 125.5,301.5C 115.022,285.326 108.355,267.659 105.5,248.5C 103.5,248.5 101.5,248.5 99.5,248.5C 95.5,248.5 91.5,248.5 87.5,248.5C 87.5,250.167 87.5,251.833 87.5,253.5C 86.5489,252.081 86.2155,250.415 86.5,248.5C 82.1667,248.5 77.8333,248.5 73.5,248.5C 67.3471,247.347 61.0137,247.18 54.5,248C 50.6543,249.695 47.6543,252.195 45.5,255.5C 45.7373,256.791 45.404,257.791 44.5,258.5C 44.5,257.5 44.5,256.5 44.5,255.5C 42.0301,255.654 40.0301,256.654 38.5,258.5C 37.1667,258.833 35.8333,259.167 34.5,259.5C 33.9332,249.331 33.2665,239.164 32.5,229C 32.7473,219.938 33.7473,211.105 35.5,202.5C 36.609,202.557 37.609,202.89 38.5,203.5C 40.0532,205.385 42.0532,206.385 44.5,206.5C 44.5,205.5 44.5,204.5 44.5,203.5C 45.404,204.209 45.7373,205.209 45.5,206.5C 47.5769,209.904 50.5769,212.404 54.5,214C 61.0137,214.82 67.3471,214.653 73.5,213.5C 78.0323,213.818 82.3656,213.485 86.5,212.5C 86.5,211.833 86.5,211.167 86.5,210.5C 86.8333,210.5 87.1667,210.5 87.5,210.5C 87.5,211.5 87.5,212.5 87.5,213.5C 91.5,213.5 95.5,213.5 99.5,213.5C 101.167,213.5 102.833,213.5 104.5,213.5C 107.969,191.074 116.302,170.741 129.5,152.5C 125.463,149.463 122.129,145.797 119.5,141.5C 118.5,140.5 117.5,139.5 116.5,138.5C 114.833,136.167 112.833,134.167 110.5,132.5C 108.646,129.49 106.313,126.824 103.5,124.5C 100.782,118.45 96.1152,115.117 89.5,114.5C 86.7273,113.343 83.7273,112.676 80.5,112.5C 79.1667,112.5 77.8333,112.5 76.5,112.5C 75.5,112.167 74.8333,111.5 74.5,110.5C 85.8521,95.4814 99.1854,82.4814 114.5,71.5C 115.791,71.2627 116.791,71.596 117.5,72.5C 117.5,74.8333 117.5,77.1667 117.5,79.5C 118.167,80.1667 118.833,80.8333 119.5,81.5C 118.903,81.7352 118.57,82.2352 118.5,83C 119.461,86.8026 120.294,90.636 121,94.5C 121.708,95.3805 122.542,96.0472 123.5,96.5C 126.874,100.876 130.874,104.542 135.5,107.5C 137.569,110.573 140.236,112.906 143.5,114.5C 144.167,114.5 144.5,114.833 144.5,115.5C 147.763,119.683 151.263,123.683 155,127.5C 171.752,115.854 190.252,108.187 210.5,104.5C 210.267,99.1053 210.6,93.772 211.5,88.5C 211.167,87.8333 210.833,87.1667 210.5,86.5C 211.482,83.0381 211.815,79.3714 211.5,75.5C 212.449,70.2599 212.782,64.9265 212.5,59.5C 211.059,55.2855 209.059,51.2855 206.5,47.5C 204.257,46.5258 201.924,46.1924 199.5,46.5C 198.508,46.6716 197.842,46.3382 197.5,45.5C 199.698,45.1249 201.698,44.4582 203.5,43.5 Z"/></g>
<g><path style="opacity:1" fill="#080339" d="M 234.5,38.5 C 235.451,39.9187 235.784,41.5853 235.5,43.5C 242.255,43.7934 248.922,43.4601 255.5,42.5C 255.821,44.0481 256.821,44.7148 258.5,44.5C 257.791,45.404 256.791,45.7373 255.5,45.5C 251.533,48.3127 248.366,51.9794 246,56.5C 245.181,62.6812 245.347,68.6812 246.5,74.5C 246.5,74.8333 246.5,75.1667 246.5,75.5C 246.5,79.1667 246.5,82.8333 246.5,86.5C 246.5,86.8333 246.5,87.1667 246.5,87.5C 246.5,93.1667 246.5,98.8333 246.5,104.5C 270.047,107.529 291.214,116.196 310,130.5C 311.823,129.349 313.656,128.182 315.5,127C 318.417,124.589 320.75,121.756 322.5,118.5C 322.5,118.167 322.5,117.833 322.5,117.5C 326.285,117.766 329.285,116.099 331.5,112.5C 336.196,109.127 340.53,105.46 344.5,101.5C 346.485,97.6586 347.819,93.4919 348.5,89C 348.693,86.9919 348.026,85.4919 346.5,84.5C 346.5,83.8333 346.833,83.5 347.5,83.5C 349.836,84.4625 351.17,83.4625 351.5,80.5C 352.222,80.0825 352.722,79.4158 353,78.5C 365.713,89.2126 377.046,101.213 387,114.5C 388.136,116.743 388.97,119.076 389.5,121.5C 388.167,121.833 386.833,122.167 385.5,122.5C 384.833,122.833 384.167,123.167 383.5,123.5C 378.126,123.523 372.793,124.023 367.5,125C 366.944,125.383 366.611,125.883 366.5,126.5C 360.446,131.887 354.779,137.554 349.5,143.5C 348.5,144.5 347.5,145.5 346.5,146.5C 342.688,150.147 339.021,153.98 335.5,158C 346.738,174.55 353.738,192.717 356.5,212.5C 363.068,213.809 369.734,213.809 376.5,212.5C 381.305,213.487 386.305,213.821 391.5,213.5C 394.976,214.643 398.642,214.81 402.5,214C 406.994,211.248 411.327,208.415 415.5,205.5C 416.167,204.833 416.833,204.167 417.5,203.5C 417.435,203.938 417.601,204.272 418,204.5C 419.113,203.695 420.279,203.028 421.5,202.5C 425.446,221.399 425.446,240.399 421.5,259.5C 420.279,258.972 419.113,258.305 418,257.5C 417.56,259.866 417.06,262.199 416.5,264.5C 415.662,264.158 415.328,263.492 415.5,262.5C 415.663,260.143 415.497,257.81 415,255.5C 412.948,253.942 410.781,252.608 408.5,251.5C 404.72,246.787 400.054,245.453 394.5,247.5C 388.31,247.177 382.31,247.51 376.5,248.5C 375.833,248.5 375.167,248.5 374.5,248.5C 368.167,248.5 361.833,248.5 355.5,248.5C 352.547,271.392 343.88,291.725 329.5,309.5C 333.881,314.043 338.047,318.71 342,323.5C 342.383,322.944 342.883,322.611 343.5,322.5C 344.167,322.5 344.5,322.833 344.5,323.5C 343.499,324.789 343.666,326.122 345,327.5C 348.516,331.241 352.016,334.908 355.5,338.5C 357.162,343.155 360.495,345.488 365.5,345.5C 368.854,347.258 372.521,348.258 376.5,348.5C 377.167,348.833 377.833,349.167 378.5,349.5C 379.959,349.433 381.292,349.766 382.5,350.5C 382.649,351.552 382.483,352.552 382,353.5C 374.201,362.967 365.701,371.8 356.5,380C 357.056,380.383 357.389,380.883 357.5,381.5C 328.883,405.634 295.883,420.301 258.5,425.5C 258.218,424.222 257.551,423.222 256.5,422.5C 287.351,419.299 315.351,408.799 340.5,391C 341.138,389.293 341.138,387.46 340.5,385.5C 340.158,384.662 339.492,384.328 338.5,384.5C 339.338,378.817 338.838,373.151 337,367.5C 334.963,365.294 332.797,363.294 330.5,361.5C 326.587,356.555 321.92,352.555 316.5,349.5C 316.5,349.167 316.5,348.833 316.5,348.5C 312.163,343.663 307.663,338.997 303,334.5C 286.056,346.38 267.223,353.38 246.5,355.5C 246.5,361.833 246.5,368.167 246.5,374.5C 247.5,375.167 248.5,375.833 249.5,376.5C 248.209,376.263 247.209,376.596 246.5,377.5C 245.342,386.657 245.176,395.991 246,405.5C 247.928,409.032 250.095,412.366 252.5,415.5C 252.5,415.833 252.5,416.167 252.5,416.5C 247.167,416.5 241.833,416.5 236.5,416.5C 236.802,419.059 236.468,421.393 235.5,423.5C 235.5,393.167 235.5,362.833 235.5,332.5C 239.702,332.817 243.702,332.483 247.5,331.5C 260.979,328.73 273.645,323.897 285.5,317C 287.996,315.669 289.996,313.836 291.5,311.5C 293.315,310.37 295.315,309.704 297.5,309.5C 296.326,307.632 296.993,306.632 299.5,306.5C 300.5,309.5 302.5,311.5 305.5,312.5C 308.436,317.105 312.102,321.105 316.5,324.5C 317.517,326.911 319.184,328.578 321.5,329.5C 325.439,335.108 330.106,340.108 335.5,344.5C 343.444,353.78 351.777,362.78 360.5,371.5C 361.562,370.575 361.562,369.575 360.5,368.5C 363.276,368.911 363.943,368.078 362.5,366C 365.287,363.75 364.954,362.25 361.5,361.5C 356.203,355.033 350.703,348.7 345,342.5C 343.349,340.79 341.516,339.456 339.5,338.5C 339.167,336.167 337.833,334.833 335.5,334.5C 332.564,329.895 328.898,325.895 324.5,322.5C 319.269,315.763 313.436,309.429 307,303.5C 305.991,301.975 305.491,300.308 305.5,298.5C 319.477,284.04 327.81,266.706 330.5,246.5C 331.051,243.193 331.384,239.86 331.5,236.5C 451.5,235.833 451.5,235.167 331.5,234.5C 331.5,234.167 331.5,233.833 331.5,233.5C 361.507,233.833 391.507,233.5 421.5,232.5C 421.376,231.893 421.043,231.56 420.5,231.5C 390.481,232.159 360.815,231.492 331.5,229.5C 451.5,228.833 451.5,228.167 331.5,227.5C 361.15,225.673 391.15,224.839 421.5,225C 391.331,224.832 361.331,224.332 331.5,223.5C 331.085,211.618 328.085,200.618 322.5,190.5C 322.657,189.127 322.49,187.793 322,186.5C 317.999,179.16 313.499,172.16 308.5,165.5C 314.161,160.506 319.494,155.173 324.5,149.5C 332.826,142.507 340.826,135.174 348.5,127.5C 349.492,127.672 350.158,127.338 350.5,126.5C 352.914,125.089 354.581,123.089 355.5,120.5C 358.427,119.243 360.761,117.243 362.5,114.5C 366.377,112.137 369.877,109.137 373,105.5C 373.692,104.563 373.525,103.897 372.5,103.5C 372.167,103.5 371.833,103.5 371.5,103.5C 371.869,101.007 371.203,100.34 369.5,101.5C 369.5,100.833 369.5,100.167 369.5,99.5C 369.158,98.6618 368.492,98.3284 367.5,98.5C 367.719,97.325 367.386,96.325 366.5,95.5C 365.893,95.6236 365.56,95.9569 365.5,96.5C 361.833,99.5 358.5,102.833 355.5,106.5C 354.833,106.5 354.5,106.833 354.5,107.5C 351.5,108.5 349.5,110.5 348.5,113.5C 342.368,117.236 337.035,121.903 332.5,127.5C 331.167,128.167 330.167,129.167 329.5,130.5C 324.493,133.843 320.16,137.843 316.5,142.5C 315.833,142.5 315.5,142.833 315.5,143.5C 311.394,146.429 307.394,149.596 303.5,153C 302.177,153.816 301.511,154.983 301.5,156.5C 300.5,156.5 299.5,156.5 298.5,156.5C 298.5,154.5 297.5,153.5 295.5,153.5C 281.382,140.453 264.715,132.787 245.5,130.5C 241.979,129.693 238.312,129.026 234.5,128.5C 234.5,98.5 234.5,68.5 234.5,38.5 Z"/></g>
<g><path style="opacity:1" fill="#080036" d="M 323.5,35.5 C 328.583,37.5491 333.583,40.0491 338.5,43C 378.847,43.2077 419.18,43.7077 459.5,44.5C 459.5,167.833 459.5,291.167 459.5,414.5C 457.199,415.06 454.866,415.56 452.5,416C 414.833,416.333 377.167,416.667 339.5,417C 335.205,419.316 330.871,421.483 326.5,423.5C 318.778,423.767 311.111,423.434 303.5,422.5C 322.601,414.613 340.601,404.613 357.5,392.5C 357.389,393.117 357.056,393.617 356.5,394C 361.5,394.667 366.5,394.667 371.5,394C 434.396,336.402 457.563,265.235 441,180.5C 429.311,134.215 405.478,95.7147 369.5,65C 364.5,64.3333 359.5,64.3333 354.5,65C 355.056,65.3826 355.389,65.8826 355.5,66.5C 338.597,54.7162 320.597,45.0495 301.5,37.5C 308.833,36.8333 316.167,36.1667 323.5,35.5 Z"/></g>
<g><path style="opacity:1" fill="#071044" d="M 198.5,36.5 C 199.167,37.1667 199.833,37.8333 200.5,38.5C 170.165,43.6042 142.498,54.9376 117.5,72.5C 116.791,71.596 115.791,71.2627 114.5,71.5C 139.308,52.7797 167.308,41.113 198.5,36.5 Z"/></g>
<g><path style="opacity:1" fill="#138cdc" d="M 199.5,46.5 C 201.924,46.1924 204.257,46.5258 206.5,47.5C 209.059,51.2855 211.059,55.2855 212.5,59.5C 178.931,63.1151 149.265,75.4485 123.5,96.5C 122.542,96.0472 121.708,95.3805 121,94.5C 120.294,90.636 119.461,86.8026 118.5,83C 118.57,82.2352 118.903,81.7352 119.5,81.5C 143.561,63.8012 170.228,52.1345 199.5,46.5 Z"/></g>
<g><path style="opacity:1" fill="#138cdc" d="M 255.5,45.5 C 289.323,50.5838 319.656,63.5838 346.5,84.5C 348.026,85.4919 348.693,86.9919 348.5,89C 347.819,93.4919 346.485,97.6586 344.5,101.5C 316.544,77.2059 283.878,63.2059 246.5,59.5C 246.5,64.5 246.5,69.5 246.5,74.5C 245.347,68.6812 245.181,62.6812 246,56.5C 248.366,51.9794 251.533,48.3127 255.5,45.5 Z"/></g>
<g><path style="opacity:1" fill="#09174f" d="M 258.5,44.5 C 292.014,49.2592 321.68,62.2592 347.5,83.5C 346.833,83.5 346.5,83.8333 346.5,84.5C 319.656,63.5838 289.323,50.5838 255.5,45.5C 256.791,45.7373 257.791,45.404 258.5,44.5 Z"/></g>
<g><path style="opacity:1" fill="#090640" d="M 107.5,64.5 C 59.2943,102.543 31.7943,152.209 25,213.5C 21.8042,286.409 47.9709,346.075 103.5,392.5C 100.299,394.26 96.6327,395.094 92.5,395C 93.6956,395.654 93.6956,396.154 92.5,396.5C 56.961,367.728 33.1277,331.061 21,286.5C 1.63146,199.676 24.1315,126.509 88.5,67C 94.543,64.6897 100.876,63.8563 107.5,64.5 Z"/></g>
<g><path style="opacity:1" fill="#1992de" d="M 212.5,59.5 C 212.782,64.9265 212.449,70.2599 211.5,75.5C 190.609,78.6285 170.943,85.1285 152.5,95C 146.445,98.6886 140.778,102.855 135.5,107.5C 130.874,104.542 126.874,100.876 123.5,96.5C 149.265,75.4485 178.931,63.1151 212.5,59.5 Z"/></g>
<g><path style="opacity:1" fill="#1992de" d="M 344.5,101.5 C 340.53,105.46 336.196,109.127 331.5,112.5C 307.301,91.3244 278.967,78.991 246.5,75.5C 246.5,75.1667 246.5,74.8333 246.5,74.5C 246.5,69.5 246.5,64.5 246.5,59.5C 283.878,63.2059 316.544,77.2059 344.5,101.5 Z"/></g>
<g><path style="opacity:1" fill="#090640" d="M 357.5,392.5 C 393.464,362.645 417.63,324.978 430,279.5C 447.3,193.211 422.467,122.211 355.5,66.5C 355.389,65.8826 355.056,65.3826 354.5,65C 359.5,64.3333 364.5,64.3333 369.5,65C 405.478,95.7147 429.311,134.215 441,180.5C 457.563,265.235 434.396,336.402 371.5,394C 366.5,394.667 361.5,394.667 356.5,394C 357.056,393.617 357.389,393.117 357.5,392.5 Z"/></g>
<g><path style="opacity:1" fill="#09174f" d="M 197.5,45.5 C 197.842,46.3382 198.508,46.6716 199.5,46.5C 170.228,52.1345 143.561,63.8012 119.5,81.5C 118.833,80.8333 118.167,80.1667 117.5,79.5C 124.279,75.6054 130.945,71.4388 137.5,67C 156.366,56.7661 176.366,49.5994 197.5,45.5 Z"/></g>
<g><path style="opacity:1" fill="#1e95de" d="M 211.5,75.5 C 211.815,79.3714 211.482,83.0381 210.5,86.5C 185.645,90.2698 163.311,99.6031 143.5,114.5C 140.236,112.906 137.569,110.573 135.5,107.5C 140.778,102.855 146.445,98.6886 152.5,95C 170.943,85.1285 190.609,78.6285 211.5,75.5 Z"/></g>
<g><path style="opacity:1" fill="#1e95dd" d="M 246.5,75.5 C 278.967,78.991 307.301,91.3244 331.5,112.5C 329.285,116.099 326.285,117.766 322.5,117.5C 300.576,99.3993 275.242,89.066 246.5,86.5C 246.5,82.8333 246.5,79.1667 246.5,75.5 Z"/></g>
<g><path style="opacity:1" fill="#0f3372" d="M 99.5,90.5 C 101.833,92.1667 103.833,94.1667 105.5,96.5C 105.433,97.9587 105.766,99.2921 106.5,100.5C 102.933,98.4434 99.7663,95.7768 97,92.5C 96.3123,91.6683 96.479,91.0016 97.5,90.5C 98.4288,91.5498 99.0954,91.5498 99.5,90.5 Z"/></g>
<g><path style="opacity:1" fill="#269ade" d="M 211.5,88.5 C 210.6,93.772 210.267,99.1053 210.5,104.5C 190.252,108.187 171.752,115.854 155,127.5C 151.263,123.683 147.763,119.683 144.5,115.5C 164.249,100.464 186.583,91.4636 211.5,88.5 Z"/></g>
<g><path style="opacity:1" fill="#259ade" d="M 246.5,87.5 C 267.515,90.1646 287.182,96.6646 305.5,107C 311.195,110.843 316.862,114.677 322.5,118.5C 320.75,121.756 318.417,124.589 315.5,127C 313.656,128.182 311.823,129.349 310,130.5C 291.214,116.196 270.047,107.529 246.5,104.5C 246.5,98.8333 246.5,93.1667 246.5,87.5 Z"/></g>
<g><path style="opacity:1" fill="#1164af" d="M 91.5,95.5 C 96.4787,98.4787 100.479,102.479 103.5,107.5C 100.944,106.457 98.7772,104.79 97,102.5C 95.3335,100.004 93.5002,97.671 91.5,95.5 Z"/></g>
<g><path style="opacity:1" fill="#0c1850" d="M 210.5,86.5 C 210.833,87.1667 211.167,87.8333 211.5,88.5C 186.583,91.4636 164.249,100.464 144.5,115.5C 144.5,114.833 144.167,114.5 143.5,114.5C 163.311,99.6031 185.645,90.2698 210.5,86.5 Z"/></g>
<g><path style="opacity:1" fill="#116db9" d="M 365.5,96.5 C 365.938,96.4346 366.272,96.6012 366.5,97C 363.236,100.773 359.57,103.94 355.5,106.5C 358.5,102.833 361.833,99.5 365.5,96.5 Z"/></g>
<g><path style="opacity:1" fill="#156db7" d="M 123.5,113.5 C 117.573,107.911 111.573,102.244 105.5,96.5C 103.833,94.1667 101.833,92.1667 99.5,90.5C 99.369,89.7611 99.5357,89.0944 100,88.5C 108.37,96.3689 116.204,104.702 123.5,113.5 Z"/></g>
<g><path style="opacity:1" fill="#238dd1" d="M 226.5,38.5 C 226.833,38.5 227.167,38.5 227.5,38.5C 226.841,68.8519 227.508,98.8519 229.5,128.5C 230.167,128.5 230.833,128.5 231.5,128.5C 233.164,98.6806 234.164,68.6806 234.5,38.5C 234.5,68.5 234.5,98.5 234.5,128.5C 232.052,129.473 229.385,129.806 226.5,129.5C 226.5,99.1667 226.5,68.8333 226.5,38.5 Z"/></g>
<g><path style="opacity:1" fill="#185393" d="M 229.5,38.5 C 231.492,68.1481 232.159,98.1481 231.5,128.5C 230.833,128.5 230.167,128.5 229.5,128.5C 229.5,98.5 229.5,68.5 229.5,38.5 Z"/></g>
<g><path style="opacity:1" fill="#0a0841" d="M 227.5,38.5 C 228.167,38.5 228.833,38.5 229.5,38.5C 229.5,68.5 229.5,98.5 229.5,128.5C 227.508,98.8519 226.841,68.8519 227.5,38.5 Z"/></g>
<g><path style="opacity:1" fill="#0c1951" d="M 246.5,87.5 C 246.5,87.1667 246.5,86.8333 246.5,86.5C 275.242,89.066 300.576,99.3993 322.5,117.5C 322.5,117.833 322.5,118.167 322.5,118.5C 316.862,114.677 311.195,110.843 305.5,107C 287.182,96.6646 267.515,90.1646 246.5,87.5 Z"/></g>
<g><path style="opacity:1" fill="#1469b3" d="M 95.5,93.5 C 102.752,101.419 110.419,109.085 118.5,116.5C 119.562,117.575 119.562,118.575 118.5,119.5C 110.317,111.151 102.317,102.651 94.5,94C 94.7284,93.6012 95.0618,93.4346 95.5,93.5 Z"/></g>
<g><path style="opacity:1" fill="#116ab5" d="M 367.5,98.5 C 368.492,98.3284 369.158,98.6618 369.5,99.5C 366.436,102.57 363.103,105.237 359.5,107.5C 362.167,104.5 364.833,101.5 367.5,98.5 Z"/></g>
<g><path style="opacity:1" fill="#136cb7" d="M 103.5,107.5 C 104.833,108.167 105.833,109.167 106.5,110.5C 104.5,110.5 103.5,109.5 103.5,107.5 Z"/></g>
<g><path style="opacity:1" fill="#1679c3" d="M 354.5,107.5 C 352.882,109.785 350.882,111.785 348.5,113.5C 349.5,110.5 351.5,108.5 354.5,107.5 Z"/></g>
<g><path style="opacity:1" fill="#0f84d6" d="M 76.5,112.5 C 77.8333,112.5 79.1667,112.5 80.5,112.5C 81.2625,113.268 82.2625,113.768 83.5,114C 62.2363,140.047 49.2363,169.88 44.5,203.5C 44.5,204.5 44.5,205.5 44.5,206.5C 42.0532,206.385 40.0532,205.385 38.5,203.5C 43.0188,169.57 55.6855,139.236 76.5,112.5 Z"/></g>
<g><path style="opacity:1" fill="#1265af" d="M 372.5,103.5 C 373.525,103.897 373.692,104.563 373,105.5C 369.877,109.137 366.377,112.137 362.5,114.5C 365.744,110.849 369.078,107.182 372.5,103.5 Z"/></g>
<g><path style="opacity:1" fill="#156bb4" d="M 371.5,103.5 C 362.345,110.922 353.345,118.588 344.5,126.5C 344.369,125.761 344.536,125.094 345,124.5C 353.76,117.387 361.926,109.721 369.5,101.5C 371.203,100.34 371.869,101.007 371.5,103.5 Z"/></g>
<g><path style="opacity:1" fill="#166eb5" d="M 106.5,110.5 C 111.54,114.539 115.873,119.206 119.5,124.5C 118.504,124.586 117.671,124.252 117,123.5C 113.263,119.273 109.763,114.94 106.5,110.5 Z"/></g>
<g><path style="opacity:1" fill="#148ddc" d="M 89.5,114.5 C 96.1152,115.117 100.782,118.45 103.5,124.5C 102.504,124.414 101.671,124.748 101,125.5C 81.3058,151.489 69.1392,180.822 64.5,213.5C 67.5,213.5 70.5,213.5 73.5,213.5C 67.3471,214.653 61.0137,214.82 54.5,214C 50.5769,212.404 47.5769,209.904 45.5,206.5C 50.5182,172.792 63.5182,142.458 84.5,115.5C 86.0453,114.548 87.712,114.215 89.5,114.5 Z"/></g>
<g><path style="opacity:1" fill="#070d43" d="M 95.5,93.5 C 95.0618,93.4346 94.7284,93.6012 94.5,94C 102.317,102.651 110.317,111.151 118.5,119.5C 119.562,118.575 119.562,117.575 118.5,116.5C 118.833,116.5 119.167,116.5 119.5,116.5C 125.447,122.111 131.447,127.778 137.5,133.5C 127.965,121.866 117.632,110.866 106.5,100.5C 105.766,99.2921 105.433,97.9587 105.5,96.5C 111.573,102.244 117.573,107.911 123.5,113.5C 129.102,120.275 134.935,126.942 141,133.5C 142.451,135.464 144.284,136.797 146.5,137.5C 146.5,139.5 147.5,140.5 149.5,140.5C 152.898,145.406 156.898,149.906 161.5,154C 161,154.5 160.5,155 160,155.5C 155.984,151.652 152.151,147.652 148.5,143.5C 147.479,144.002 147.312,144.668 148,145.5C 151.682,149.015 155.182,152.682 158.5,156.5C 157.998,157.521 157.332,157.688 156.5,157C 154.297,154.628 151.963,152.461 149.5,150.5C 151.22,153.731 153.553,156.564 156.5,159C 156,159.5 155.5,160 155,160.5C 152.271,157.601 149.438,154.934 146.5,152.5C 138.194,142.527 129.194,133.193 119.5,124.5C 115.873,119.206 111.54,114.539 106.5,110.5C 105.833,109.167 104.833,108.167 103.5,107.5C 100.479,102.479 96.4787,98.4787 91.5,95.5C 92.452,94.548 93.452,93.548 94.5,92.5C 95.1067,92.6236 95.44,92.9569 95.5,93.5 Z"/></g>
<g><path style="opacity:1" fill="#1869af" d="M 106.5,100.5 C 117.632,110.866 127.965,121.866 137.5,133.5C 131.447,127.778 125.447,122.111 119.5,116.5C 115.197,111.191 110.863,105.858 106.5,100.5 Z"/></g>
<g><path style="opacity:1" fill="#156eb7" d="M 362.5,114.5 C 360.761,117.243 358.427,119.243 355.5,120.5C 357.239,117.757 359.573,115.757 362.5,114.5 Z"/></g>
<g><path style="opacity:1" fill="#194c89" d="M 226.5,38.5 C 226.5,68.8333 226.5,99.1667 226.5,129.5C 229.385,129.806 232.052,129.473 234.5,128.5C 238.312,129.026 241.979,129.693 245.5,130.5C 234.419,130.19 223.419,130.523 212.5,131.5C 212.158,130.662 211.492,130.328 210.5,130.5C 214.031,129.77 217.697,129.104 221.5,128.5C 222.5,100.175 222.833,71.8412 222.5,43.5C 222.215,41.712 222.548,40.0453 223.5,38.5C 224.333,68.4944 224.833,98.4944 225,128.5C 225.168,98.3305 225.668,68.3305 226.5,38.5 Z"/></g>
<g><path style="opacity:1" fill="#1a70b6" d="M 123.5,123.5 C 122.005,123.585 121.005,122.919 120.5,121.5C 122.396,120.361 123.396,121.027 123.5,123.5 Z"/></g>
<g><path style="opacity:1" fill="#1871b9" d="M 355.5,120.5 C 354.581,123.089 352.914,125.089 350.5,126.5C 351.059,124.206 352.726,122.206 355.5,120.5 Z"/></g>
<g><path style="opacity:1" fill="#0f83d4" d="M 421.5,202.5 C 420.279,203.028 419.113,203.695 418,204.5C 417.601,204.272 417.435,203.938 417.5,203.5C 412.724,173.954 402.057,146.954 385.5,122.5C 386.833,122.167 388.167,121.833 389.5,121.5C 390.117,121.389 390.617,121.056 391,120.5C 407.559,144.304 418.059,170.637 422.5,199.5C 422.315,200.584 421.982,201.584 421.5,202.5 Z"/></g>
<g><path style="opacity:1" fill="#196aaf" d="M 348.5,113.5 C 345.315,117.184 341.982,120.684 338.5,124C 336.595,125.421 334.595,126.588 332.5,127.5C 337.035,121.903 342.368,117.236 348.5,113.5 Z"/></g>
<g><path style="opacity:1" fill="#1a92de" d="M 103.5,124.5 C 106.313,126.824 108.646,129.49 110.5,132.5C 109.504,132.414 108.671,132.748 108,133.5C 90.5044,156.915 79.671,183.249 75.5,212.5C 79.1667,212.5 82.8333,212.5 86.5,212.5C 82.3656,213.485 78.0323,213.818 73.5,213.5C 70.5,213.5 67.5,213.5 64.5,213.5C 69.1392,180.822 81.3058,151.489 101,125.5C 101.671,124.748 102.504,124.414 103.5,124.5 Z"/></g>
<g><path style="opacity:1" fill="#138cdb" d="M 383.5,123.5 C 401.02,148.042 411.686,175.375 415.5,205.5C 411.327,208.415 406.994,211.248 402.5,214C 398.642,214.81 394.976,214.643 391.5,213.5C 394.833,213.5 398.167,213.5 401.5,213.5C 398.261,180.746 386.594,151.746 366.5,126.5C 366.611,125.883 366.944,125.383 367.5,125C 372.793,124.023 378.126,123.523 383.5,123.5 Z"/></g>
<g><path style="opacity:1" fill="#1e6fb1" d="M 123.5,113.5 C 131.791,120.793 139.458,128.793 146.5,137.5C 144.284,136.797 142.451,135.464 141,133.5C 134.935,126.942 129.102,120.275 123.5,113.5 Z"/></g>
<g><path style="opacity:1" fill="#080238" d="M 245.5,130.5 C 263.682,134.925 280.349,142.592 295.5,153.5C 297.5,153.5 298.5,154.5 298.5,156.5C 298.856,158.19 299.856,159.19 301.5,159.5C 309.704,169.034 316.704,179.367 322.5,190.5C 324.176,196.871 326.01,203.204 328,209.5C 328.732,214.661 329.566,219.661 330.5,224.5C 330.332,231.51 329.999,238.51 329.5,245.5C 327.306,254.924 324.472,264.257 321,273.5C 316.801,282.511 311.635,290.844 305.5,298.5C 304.761,298.369 304.094,298.536 303.5,299C 302.279,301.034 300.945,302.867 299.5,304.5C 296.492,306.512 293.825,308.846 291.5,311.5C 277.614,321.103 262.281,327.436 245.5,330.5C 234.47,331.813 223.47,331.813 212.5,330.5C 163.251,319.25 135.251,288.584 128.5,238.5C 128.5,233.5 128.5,228.5 128.5,223.5C 129.192,217.823 130.025,212.156 131,206.5C 133.301,200.956 135.134,195.29 136.5,189.5C 152.256,157.758 177.59,138.425 212.5,131.5C 223.419,130.523 234.419,130.19 245.5,130.5 Z"/></g>
<g><path style="opacity:1" fill="#1b92de" d="M 366.5,126.5 C 386.594,151.746 398.261,180.746 401.5,213.5C 398.167,213.5 394.833,213.5 391.5,213.5C 386.305,213.821 381.305,213.487 376.5,212.5C 374.997,200.826 372.164,189.492 368,178.5C 365.61,173.997 363.61,169.331 362,164.5C 357.307,157.775 353.14,150.775 349.5,143.5C 354.779,137.554 360.446,131.887 366.5,126.5 Z"/></g>
<g><path style="opacity:1" fill="#1e95de" d="M 110.5,132.5 C 112.833,134.167 114.833,136.167 116.5,138.5C 109.549,149.454 103.049,160.787 97,172.5C 91.9462,184.713 88.4462,197.38 86.5,210.5C 86.5,211.167 86.5,211.833 86.5,212.5C 82.8333,212.5 79.1667,212.5 75.5,212.5C 79.671,183.249 90.5044,156.915 108,133.5C 108.671,132.748 109.504,132.414 110.5,132.5 Z"/></g>
<g><path style="opacity:1" fill="#2069a8" d="M 137.5,133.5 C 141.041,135.456 144.041,138.123 146.5,141.5C 145.998,142.521 145.332,142.688 144.5,142C 141.577,139.584 139.243,136.75 137.5,133.5 Z"/></g>
<g><path style="opacity:1" fill="#2071b2" d="M 119.5,124.5 C 129.194,133.193 138.194,142.527 146.5,152.5C 143.944,151.457 141.777,149.79 140,147.5C 132.879,139.891 126.046,132.225 119.5,124.5 Z"/></g>
<g><path style="opacity:1" fill="#09154e" d="M 80.5,112.5 C 83.7273,112.676 86.7273,113.343 89.5,114.5C 87.712,114.215 86.0453,114.548 84.5,115.5C 63.5182,142.458 50.5182,172.792 45.5,206.5C 45.7373,205.209 45.404,204.209 44.5,203.5C 49.2363,169.88 62.2363,140.047 83.5,114C 82.2625,113.768 81.2625,113.268 80.5,112.5 Z"/></g>
<g><path style="opacity:1" fill="#2072b3" d="M 123.5,123.5 C 131.868,130.867 139.535,138.867 146.5,147.5C 143.937,146.408 141.77,144.742 140,142.5C 134.268,136.275 128.768,129.942 123.5,123.5 Z"/></g>
<g><path style="opacity:1" fill="#2a7db7" d="M 245.5,130.5 C 264.715,132.787 281.382,140.453 295.5,153.5C 280.349,142.592 263.682,134.925 245.5,130.5 Z"/></g>
<g><path style="opacity:1" fill="#2176b7" d="M 329.5,130.5 C 329.586,131.496 329.252,132.329 328.5,133C 324.606,136.404 320.606,139.571 316.5,142.5C 320.16,137.843 324.493,133.843 329.5,130.5 Z"/></g>
<g><path style="opacity:1" fill="#2376b5" d="M 146.5,137.5 C 147.833,138.167 148.833,139.167 149.5,140.5C 147.5,140.5 146.5,139.5 146.5,137.5 Z"/></g>
<g><path style="opacity:1" fill="#081146" d="M 365.5,96.5 C 365.56,95.9569 365.893,95.6236 366.5,95.5C 367.386,96.325 367.719,97.325 367.5,98.5C 364.833,101.5 362.167,104.5 359.5,107.5C 363.103,105.237 366.436,102.57 369.5,99.5C 369.5,100.167 369.5,100.833 369.5,101.5C 361.926,109.721 353.76,117.387 345,124.5C 344.536,125.094 344.369,125.761 344.5,126.5C 353.345,118.588 362.345,110.922 371.5,103.5C 371.833,103.5 372.167,103.5 372.5,103.5C 369.078,107.182 365.744,110.849 362.5,114.5C 359.573,115.757 357.239,117.757 355.5,120.5C 352.726,122.206 351.059,124.206 350.5,126.5C 350.158,127.338 349.492,127.672 348.5,127.5C 339.523,133.813 331.523,141.146 324.5,149.5C 318.558,154.267 312.725,159.267 307,164.5C 306.387,162.505 306.887,160.838 308.5,159.5C 306.983,159.511 305.816,160.177 305,161.5C 303.086,160.324 303.252,159.324 305.5,158.5C 305.167,158.167 304.833,157.833 304.5,157.5C 303.482,158.193 302.482,158.859 301.5,159.5C 301.5,158.5 301.5,157.5 301.5,156.5C 306.794,152.873 311.461,148.54 315.5,143.5C 315.5,142.833 315.833,142.5 316.5,142.5C 320.606,139.571 324.606,136.404 328.5,133C 329.252,132.329 329.586,131.496 329.5,130.5C 330.167,129.167 331.167,128.167 332.5,127.5C 334.595,126.588 336.595,125.421 338.5,124C 341.982,120.684 345.315,117.184 348.5,113.5C 350.882,111.785 352.882,109.785 354.5,107.5C 354.5,106.833 354.833,106.5 355.5,106.5C 359.57,103.94 363.236,100.773 366.5,97C 366.272,96.6012 365.938,96.4346 365.5,96.5 Z"/></g>
<g><path style="opacity:1" fill="#2076b7" d="M 335.5,134.5 C 332.059,138.444 328.392,142.277 324.5,146C 323.668,146.688 323.002,146.521 322.5,145.5C 326.534,141.464 330.868,137.798 335.5,134.5 Z"/></g>
<g><path style="opacity:1" fill="#1f76b9" d="M 328.5,136.5 C 329.802,134.31 331.469,132.31 333.5,130.5C 334.521,131.002 334.688,131.668 334,132.5C 332.226,133.965 330.392,135.298 328.5,136.5 Z"/></g>
<g><path style="opacity:1" fill="#1b72b7" d="M 344.5,126.5 C 342.1,129.903 339.1,132.57 335.5,134.5C 337.9,131.097 340.9,128.43 344.5,126.5 Z"/></g>
<g><path style="opacity:1" fill="#1c7dc3" d="M 342.5,123.5 C 340.798,126.395 338.464,128.228 335.5,129C 337.441,126.546 339.775,124.713 342.5,123.5 Z"/></g>
<g><path style="opacity:1" fill="#1670b9" d="M 359.5,107.5 C 354.49,113.51 348.823,118.843 342.5,123.5C 347.464,117.54 353.13,112.207 359.5,107.5 Z"/></g>
<g><path style="opacity:1" fill="#080d46" d="M 322.5,56.5 C 382.95,90.4501 417.783,141.783 427,210.5C 431.84,279.2 408.673,336.2 357.5,381.5C 357.389,380.883 357.056,380.383 356.5,380C 365.701,371.8 374.201,362.967 382,353.5C 382.483,352.552 382.649,351.552 382.5,350.5C 387.853,344.636 392.687,338.303 397,331.5C 410.677,309.197 418.843,285.197 421.5,259.5C 425.446,240.399 425.446,221.399 421.5,202.5C 421.982,201.584 422.315,200.584 422.5,199.5C 418.059,170.637 407.559,144.304 391,120.5C 390.617,121.056 390.117,121.389 389.5,121.5C 388.97,119.076 388.136,116.743 387,114.5C 377.046,101.213 365.713,89.2126 353,78.5C 352.722,79.4158 352.222,80.0825 351.5,80.5C 351.079,78.0901 349.746,76.2568 347.5,75C 339.405,69.2942 331.072,64.1275 322.5,59.5C 322.5,58.5 322.5,57.5 322.5,56.5 Z"/></g>
<g><path style="opacity:1" fill="#3cace0" d="M 314.5,242.5 C 312.585,242.784 310.919,242.451 309.5,241.5C 312.811,203.947 298.144,176.113 265.5,158C 227.992,143.005 195.492,150.171 168,179.5C 154.043,197.739 148.209,218.405 150.5,241.5C 148.283,242.369 145.95,242.702 143.5,242.5C 141.156,194.341 162.823,162.507 208.5,147C 250.259,139.804 282.426,153.971 305,189.5C 313.421,206.193 316.588,223.859 314.5,242.5 Z"/></g>
<g><path style="opacity:1" fill="#1f74b5" d="M 348.5,127.5 C 340.826,135.174 332.826,142.507 324.5,149.5C 331.523,141.146 339.523,133.813 348.5,127.5 Z"/></g>
<g><path style="opacity:1" fill="#2376b4" d="M 328.5,136.5 C 322.8,142.93 316.467,148.597 309.5,153.5C 315.2,147.07 321.533,141.403 328.5,136.5 Z"/></g>
<g><path style="opacity:1" fill="#269bdf" d="M 119.5,141.5 C 122.129,145.797 125.463,149.463 129.5,152.5C 116.302,170.741 107.969,191.074 104.5,213.5C 102.833,213.5 101.167,213.5 99.5,213.5C 95.5575,213.125 91.8909,212.125 88.5,210.5C 91.7593,185.12 101.259,162.454 117,142.5C 117.671,141.748 118.504,141.414 119.5,141.5 Z"/></g>
<g><path style="opacity:1" fill="#267cb8" d="M 146.5,147.5 C 147.833,148.167 148.833,149.167 149.5,150.5C 147.5,150.5 146.5,149.5 146.5,147.5 Z"/></g>
<g><path style="opacity:1" fill="#277ebc" d="M 308.5,159.5 C 308.369,158.761 308.536,158.094 309,157.5C 312.742,154.694 316.242,151.527 319.5,148C 320.167,147.333 320.833,147.333 321.5,148C 317.592,152.413 313.259,156.247 308.5,159.5 Z"/></g>
<g><path style="opacity:1" fill="#42b4e5" d="M 309.5,241.5 C 302.109,241.201 294.776,241.535 287.5,242.5C 286.702,242.043 286.369,241.376 286.5,240.5C 288.48,231.286 288.98,221.952 288,212.5C 286.203,206.239 283.369,200.572 279.5,195.5C 282.012,187.582 281.678,179.749 278.5,172C 269.588,171.86 261.588,174.526 254.5,180C 245.998,179.891 237.498,179.391 229,178.5C 221.461,178.737 213.961,179.404 206.5,180.5C 201.098,178.301 195.764,175.801 190.5,173C 186.959,171.745 183.459,171.578 180,172.5C 176.902,180.294 176.735,188.128 179.5,196C 170.062,206.074 166.895,217.907 170,231.5C 170.737,235.207 171.571,238.873 172.5,242.5C 165.196,241.698 157.862,241.365 150.5,241.5C 148.209,218.405 154.043,197.739 168,179.5C 195.492,150.171 227.992,143.005 265.5,158C 298.144,176.113 312.811,203.947 309.5,241.5 Z"/></g>
<g><path style="opacity:1" fill="#0b174f" d="M 116.5,138.5 C 117.5,139.5 118.5,140.5 119.5,141.5C 118.504,141.414 117.671,141.748 117,142.5C 101.259,162.454 91.7593,185.12 88.5,210.5C 88.1667,210.5 87.8333,210.5 87.5,210.5C 87.1667,210.5 86.8333,210.5 86.5,210.5C 88.4462,197.38 91.9462,184.713 97,172.5C 103.049,160.787 109.549,149.454 116.5,138.5 Z"/></g>
<g><path style="opacity:1" fill="#287db9" d="M 315.5,143.5 C 311.461,148.54 306.794,152.873 301.5,156.5C 301.511,154.983 302.177,153.816 303.5,153C 307.394,149.596 311.394,146.429 315.5,143.5 Z"/></g>
<g><path style="opacity:1" fill="#259ade" d="M 346.5,146.5 C 349.422,148.594 351.922,151.261 354,154.5C 365.003,172.326 371.836,191.659 374.5,212.5C 368.5,212.5 362.5,212.5 356.5,212.5C 353.738,192.717 346.738,174.55 335.5,158C 339.021,153.98 342.688,150.147 346.5,146.5 Z"/></g>
<g><path style="opacity:1" fill="#2a81bb" d="M 210.5,130.5 C 211.492,130.328 212.158,130.662 212.5,131.5C 177.59,138.425 152.256,157.758 136.5,189.5C 136.687,187.436 137.187,185.436 138,183.5C 142.583,175.751 147.75,168.418 153.5,161.5C 150.737,158.748 148.403,155.748 146.5,152.5C 149.438,154.934 152.271,157.601 155,160.5C 155.5,160 156,159.5 156.5,159C 153.553,156.564 151.22,153.731 149.5,150.5C 151.963,152.461 154.297,154.628 156.5,157C 157.332,157.688 157.998,157.521 158.5,156.5C 155.182,152.682 151.682,149.015 148,145.5C 147.312,144.668 147.479,144.002 148.5,143.5C 152.151,147.652 155.984,151.652 160,155.5C 160.5,155 161,154.5 161.5,154C 156.898,149.906 152.898,145.406 149.5,140.5C 153.813,144.478 158.146,148.478 162.5,152.5C 176.777,141.361 192.777,134.028 210.5,130.5 Z"/></g>
<g><path style="opacity:1" fill="#2c7fb9" d="M 295.5,153.5 C 297.5,153.5 298.5,154.5 298.5,156.5C 296.5,156.5 295.5,155.5 295.5,153.5 Z"/></g>
<g><path style="opacity:1" fill="#2a86c1" d="M 309.5,153.5 C 309.489,155.686 308.489,156.519 306.5,156C 307.373,154.955 308.373,154.122 309.5,153.5 Z"/></g>
<g><path style="opacity:1" fill="#2c84be" d="M 298.5,156.5 C 299.5,156.5 300.5,156.5 301.5,156.5C 301.5,157.5 301.5,158.5 301.5,159.5C 299.856,159.19 298.856,158.19 298.5,156.5 Z"/></g>
<g><path style="opacity:1" fill="#080f47" d="M 74.5,110.5 C 74.8333,111.5 75.5,112.167 76.5,112.5C 55.6855,139.236 43.0188,169.57 38.5,203.5C 37.609,202.89 36.609,202.557 35.5,202.5C 40.3814,168.106 53.3814,137.439 74.5,110.5 Z"/></g>
<g><path style="opacity:1" fill="#2a82bc" d="M 324.5,149.5 C 319.494,155.173 314.161,160.506 308.5,165.5C 313.499,172.16 317.999,179.16 322,186.5C 322.49,187.793 322.657,189.127 322.5,190.5C 316.704,179.367 309.704,169.034 301.5,159.5C 302.482,158.859 303.482,158.193 304.5,157.5C 304.833,157.833 305.167,158.167 305.5,158.5C 303.252,159.324 303.086,160.324 305,161.5C 305.816,160.177 306.983,159.511 308.5,159.5C 306.887,160.838 306.387,162.505 307,164.5C 312.725,159.267 318.558,154.267 324.5,149.5 Z"/></g>
<g><path style="opacity:1" fill="#09164f" d="M 385.5,122.5 C 402.057,146.954 412.724,173.954 417.5,203.5C 416.833,204.167 416.167,204.833 415.5,205.5C 411.686,175.375 401.02,148.042 383.5,123.5C 384.167,123.167 384.833,122.833 385.5,122.5 Z"/></g>
<g><path style="opacity:1" fill="#2a79b3" d="M 322.5,190.5 C 328.085,200.618 331.085,211.618 331.5,223.5C 330.833,223.5 330.5,223.833 330.5,224.5C 329.566,219.661 328.732,214.661 328,209.5C 326.01,203.204 324.176,196.871 322.5,190.5 Z"/></g>
<g><path style="opacity:1" fill="#0e1f59" d="M 349.5,143.5 C 353.14,150.775 357.307,157.775 362,164.5C 363.61,169.331 365.61,173.997 368,178.5C 372.164,189.492 374.997,200.826 376.5,212.5C 369.734,213.809 363.068,213.809 356.5,212.5C 362.5,212.5 368.5,212.5 374.5,212.5C 371.836,191.659 365.003,172.326 354,154.5C 351.922,151.261 349.422,148.594 346.5,146.5C 347.5,145.5 348.5,144.5 349.5,143.5 Z"/></g>
<g><path style="opacity:1" fill="#185393" d="M 87.5,210.5 C 87.8333,210.5 88.1667,210.5 88.5,210.5C 91.8909,212.125 95.5575,213.125 99.5,213.5C 95.5,213.5 91.5,213.5 87.5,213.5C 87.5,212.5 87.5,211.5 87.5,210.5 Z"/></g>
<g><path style="opacity:1" fill="#2b80ba" d="M 136.5,189.5 C 135.134,195.29 133.301,200.956 131,206.5C 130.025,212.156 129.192,217.823 128.5,223.5C 128.167,223.5 127.833,223.5 127.5,223.5C 127.867,212.747 130.033,202.414 134,192.5C 134.377,191.058 135.21,190.058 136.5,189.5 Z"/></g>
<g><path style="opacity:1" fill="#268fd2" d="M 331.5,223.5 C 361.331,224.332 391.331,224.832 421.5,225C 391.15,224.839 361.15,225.673 331.5,227.5C 331.5,228.167 331.5,228.833 331.5,229.5C 360.815,231.492 390.481,232.159 420.5,231.5C 390.833,232.167 361.167,232.833 331.5,233.5C 331.5,233.833 331.5,234.167 331.5,234.5C 331.5,235.167 331.5,235.833 331.5,236.5C 331.384,239.86 331.051,243.193 330.5,246.5C 329.833,246.5 329.5,246.167 329.5,245.5C 329.999,238.51 330.332,231.51 330.5,224.5C 330.5,223.833 330.833,223.5 331.5,223.5 Z"/></g>
<g><path style="opacity:1" fill="#165496" d="M 331.5,227.5 C 451.5,228.167 451.5,228.833 331.5,229.5C 331.5,228.833 331.5,228.167 331.5,227.5 Z"/></g>
<g><path style="opacity:1" fill="#1c69ab" d="M 126.5,228.5 C 127.833,229.167 127.833,229.833 126.5,230.5C 6.5,229.833 6.5,229.167 126.5,228.5 Z"/></g>
<g><path style="opacity:1" fill="#10306d" d="M 420.5,231.5 C 421.043,231.56 421.376,231.893 421.5,232.5C 391.507,233.5 361.507,233.833 331.5,233.5C 361.167,232.833 390.833,232.167 420.5,231.5 Z"/></g>
<g><path style="opacity:1" fill="#144687" d="M 331.5,234.5 C 451.5,235.167 451.5,235.833 331.5,236.5C 331.5,235.833 331.5,235.167 331.5,234.5 Z"/></g>
<g><path style="opacity:1" fill="#135093" d="M 95.5,235.5 C 90.5,236.167 85.5,236.833 80.5,237.5C 65.8182,237.833 51.1515,237.499 36.5,236.5C 56.1554,235.5 75.822,235.167 95.5,235.5 Z"/></g>
<g><path style="opacity:1" fill="#1f68a7" d="M 127.5,223.5 C 127.833,223.5 128.167,223.5 128.5,223.5C 128.5,228.5 128.5,233.5 128.5,238.5C 128.167,238.5 127.833,238.5 127.5,238.5C 112.009,237.504 96.3422,237.17 80.5,237.5C 85.5,236.833 90.5,236.167 95.5,235.5C 105.855,235.832 116.188,235.499 126.5,234.5C 96.5056,233.667 66.5056,233.167 36.5,233C 66.85,233.161 96.85,232.327 126.5,230.5C 127.833,229.833 127.833,229.167 126.5,228.5C 96.85,226.673 66.85,225.839 36.5,226C 67.1832,226.161 97.5165,225.327 127.5,223.5 Z"/></g>
<g><path style="opacity:1" fill="#2b6a9e" d="M 286.5,240.5 C 286.369,241.376 286.702,242.043 287.5,242.5C 294.776,241.535 302.109,241.201 309.5,241.5C 310.919,242.451 312.585,242.784 314.5,242.5C 314.737,243.791 314.404,244.791 313.5,245.5C 304.56,243.528 295.227,242.861 285.5,243.5C 285.263,242.209 285.596,241.209 286.5,240.5 Z"/></g>
<g><path style="opacity:1" fill="#29659a" d="M 150.5,241.5 C 157.862,241.365 165.196,241.698 172.5,242.5C 172.5,242.833 172.5,243.167 172.5,243.5C 162.985,243.173 153.652,243.506 144.5,244.5C 143.662,244.158 143.328,243.492 143.5,242.5C 145.95,242.702 148.283,242.369 150.5,241.5 Z"/></g>
<g><path style="opacity:1" fill="#3fb0e3" d="M 172.5,243.5 C 173.404,244.209 173.737,245.209 173.5,246.5C 171.167,246.5 168.833,246.5 166.5,246.5C 159.484,247.02 152.484,247.687 145.5,248.5C 145.167,247.167 144.833,245.833 144.5,244.5C 153.652,243.506 162.985,243.173 172.5,243.5 Z"/></g>
<g><path style="opacity:1" fill="#3fb0e2" d="M 285.5,243.5 C 295.227,242.861 304.56,243.528 313.5,245.5C 313.737,246.791 313.404,247.791 312.5,248.5C 305.516,247.687 298.516,247.02 291.5,246.5C 289.143,246.663 286.81,246.497 284.5,246C 285.252,245.329 285.586,244.496 285.5,243.5 Z"/></g>
<g><path style="opacity:1" fill="#1c3a72" d="M 166.5,246.5 C 166.5,246.833 166.5,247.167 166.5,247.5C 160.979,247.931 155.479,248.598 150,249.5C 148.319,249.608 147.152,250.275 146.5,251.5C 145.596,250.791 145.263,249.791 145.5,248.5C 152.484,247.687 159.484,247.02 166.5,246.5 Z"/></g>
<g><path style="opacity:1" fill="#1d3b72" d="M 291.5,247.5 C 291.5,247.167 291.5,246.833 291.5,246.5C 298.516,247.02 305.516,247.687 312.5,248.5C 312.5,248.833 312.5,249.167 312.5,249.5C 311.167,249.5 309.833,249.5 308.5,249.5C 302.845,248.751 297.178,248.085 291.5,247.5 Z"/></g>
<g><path style="opacity:1" fill="#148ddc" d="M 73.5,248.5 C 70.4816,248.335 67.4816,248.502 64.5,249C 68.7308,277.604 78.8975,303.77 95,327.5C 95.6708,328.252 96.5041,328.586 97.5,328.5C 93.868,334.379 88.5347,337.379 81.5,337.5C 79.8561,337.714 78.3561,337.38 77,336.5C 60.502,311.841 50.002,284.841 45.5,255.5C 47.6543,252.195 50.6543,249.695 54.5,248C 61.0137,247.18 67.3471,247.347 73.5,248.5 Z"/></g>
<g><path style="opacity:1" fill="#47b8e6" d="M 288.5,247.5 C 289.718,248.161 291.051,248.828 292.5,249.5C 285.946,269.385 272.946,283.052 253.5,290.5C 254.765,281.965 252.432,274.632 246.5,268.5C 256.61,267.264 265.943,263.931 274.5,258.5C 277.658,255.172 280.658,251.672 283.5,248C 285.134,247.506 286.801,247.34 288.5,247.5 Z"/></g>
<g><path style="opacity:1" fill="#1b93dd" d="M 394.5,247.5 C 395.043,247.56 395.376,247.893 395.5,248.5C 391.289,282.893 377.955,312.893 355.5,338.5C 352.016,334.908 348.516,331.241 345,327.5C 343.666,326.122 343.499,324.789 344.5,323.5C 362.467,301.87 373.134,276.87 376.5,248.5C 382.31,247.51 388.31,247.177 394.5,247.5 Z"/></g>
<g><path style="opacity:1" fill="#158edd" d="M 394.5,247.5 C 400.054,245.453 404.72,246.787 408.5,251.5C 404.564,286.821 391.231,317.987 368.5,345C 367.552,345.483 366.552,345.649 365.5,345.5C 360.495,345.488 357.162,343.155 355.5,338.5C 377.955,312.893 391.289,282.893 395.5,248.5C 395.376,247.893 395.043,247.56 394.5,247.5 Z"/></g>
<g><path style="opacity:1" fill="#174e8d" d="M 99.5,248.5 C 96.0381,249.482 92.3714,249.815 88.5,249.5C 88.5,250.833 88.5,252.167 88.5,253.5C 88.1667,253.5 87.8333,253.5 87.5,253.5C 87.5,251.833 87.5,250.167 87.5,248.5C 91.5,248.5 95.5,248.5 99.5,248.5 Z"/></g>
<g><path style="opacity:1" fill="#45b5e4" d="M 171.5,247.5 C 175.224,247.05 177.391,248.717 178,252.5C 187.274,261.815 198.44,267.315 211.5,269C 208.347,271.805 206.681,275.305 206.5,279.5C 204.897,279.312 203.563,279.812 202.5,281C 203.731,282.183 203.731,283.349 202.5,284.5C 200.729,283.965 200.396,283.131 201.5,282C 196.24,282.072 191.24,281.072 186.5,279C 183.302,274.974 179.968,271.141 176.5,267.5C 174.418,265.366 172.418,265.366 170.5,267.5C 169.438,266.575 169.438,265.575 170.5,264.5C 164.586,261.041 161.586,255.708 161.5,248.5C 165.042,248.813 168.375,248.479 171.5,247.5 Z"/></g>
<g><path style="opacity:1" fill="#40b4e6" d="M 288.5,247.5 C 289.5,247.5 290.5,247.5 291.5,247.5C 297.178,248.085 302.845,248.751 308.5,249.5C 299.971,278.028 281.638,297.028 253.5,306.5C 253.5,301.167 253.5,295.833 253.5,290.5C 272.946,283.052 285.946,269.385 292.5,249.5C 291.051,248.828 289.718,248.161 288.5,247.5 Z"/></g>
<g><path style="opacity:1" fill="#1d94dd" d="M 73.5,248.5 C 77.8333,248.5 82.1667,248.5 86.5,248.5C 86.2155,250.415 86.5489,252.081 87.5,253.5C 90.1803,275.508 97.8469,295.508 110.5,313.5C 110.649,314.552 110.483,315.552 110,316.5C 105.911,320.759 101.745,324.759 97.5,328.5C 96.5041,328.586 95.6708,328.252 95,327.5C 78.8975,303.77 68.7308,277.604 64.5,249C 67.4816,248.502 70.4816,248.335 73.5,248.5 Z"/></g>
<g><path style="opacity:1" fill="#269ade" d="M 99.5,248.5 C 101.5,248.5 103.5,248.5 105.5,248.5C 108.355,267.659 115.022,285.326 125.5,301.5C 121.175,305.655 116.508,309.322 111.5,312.5C 99.4431,294.661 91.7764,274.994 88.5,253.5C 88.5,252.167 88.5,250.833 88.5,249.5C 92.3714,249.815 96.0381,249.482 99.5,248.5 Z"/></g>
<g><path style="opacity:1" fill="#3daee2" d="M 166.5,247.5 C 168.167,247.5 169.833,247.5 171.5,247.5C 168.375,248.479 165.042,248.813 161.5,248.5C 161.586,255.708 164.586,261.041 170.5,264.5C 168.25,264.181 166.25,264.681 164.5,266C 167.468,268.392 170.301,270.892 173,273.5C 175.275,279.219 178.442,284.385 182.5,289C 189.608,293.515 197.275,294.681 205.5,292.5C 205.5,299.167 205.5,305.833 205.5,312.5C 180.536,305.38 162.369,290.047 151,266.5C 148.905,261.653 147.405,256.653 146.5,251.5C 147.152,250.275 148.319,249.608 150,249.5C 155.479,248.598 160.979,247.931 166.5,247.5 Z"/></g>
<g><path style="opacity:1" fill="#3cace1" d="M 308.5,249.5 C 309.833,249.5 311.167,249.5 312.5,249.5C 304.997,281.339 285.663,302.339 254.5,312.5C 253.534,310.604 253.201,308.604 253.5,306.5C 281.638,297.028 299.971,278.028 308.5,249.5 Z"/></g>
<g><path style="opacity:1" fill="#2499de" d="M 374.5,248.5 C 371.16,276.209 360.827,300.876 343.5,322.5C 342.883,322.611 342.383,322.944 342,323.5C 338.047,318.71 333.881,314.043 329.5,309.5C 343.88,291.725 352.547,271.392 355.5,248.5C 361.833,248.5 368.167,248.5 374.5,248.5 Z"/></g>
<g><path style="opacity:1" fill="#1189d9" d="M 408.5,251.5 C 410.781,252.608 412.948,253.942 415,255.5C 415.497,257.81 415.663,260.143 415.5,262.5C 410.792,285.455 402.625,307.122 391,327.5C 386.618,334.819 381.784,341.819 376.5,348.5C 372.521,348.258 368.854,347.258 365.5,345.5C 366.552,345.649 367.552,345.483 368.5,345C 391.231,317.987 404.564,286.821 408.5,251.5 Z"/></g>
<g><path style="opacity:1" fill="#0f84d5" d="M 44.5,258.5 C 49.3351,287.47 59.6684,314.137 75.5,338.5C 73.1667,338.5 70.8333,338.5 68.5,338.5C 52.9418,314.027 42.9418,287.36 38.5,258.5C 40.0301,256.654 42.0301,255.654 44.5,255.5C 44.5,256.5 44.5,257.5 44.5,258.5 Z"/></g>
<g><path style="opacity:1" fill="#2b7fb9" d="M 329.5,245.5 C 329.5,246.167 329.833,246.5 330.5,246.5C 327.81,266.706 319.477,284.04 305.5,298.5C 311.635,290.844 316.801,282.511 321,273.5C 324.472,264.257 327.306,254.924 329.5,245.5 Z"/></g>
<g><path style="opacity:1" fill="#0f84d5" d="M 421.5,259.5 C 418.843,285.197 410.677,309.197 397,331.5C 392.687,338.303 387.853,344.636 382.5,350.5C 381.292,349.766 379.959,349.433 378.5,349.5C 397.345,324.126 410.012,295.793 416.5,264.5C 417.06,262.199 417.56,259.866 418,257.5C 419.113,258.305 420.279,258.972 421.5,259.5 Z"/></g>
<g><path style="opacity:1" fill="#080e47" d="M 38.5,258.5 C 42.9418,287.36 52.9418,314.027 68.5,338.5C 67.6618,338.842 67.3284,339.508 67.5,340.5C 59.9852,329.477 53.4852,317.811 48,305.5C 42.6713,290.316 38.1713,274.983 34.5,259.5C 35.8333,259.167 37.1667,258.833 38.5,258.5 Z"/></g>
<g><path style="opacity:1" fill="#0c1851" d="M 374.5,248.5 C 375.167,248.5 375.833,248.5 376.5,248.5C 373.134,276.87 362.467,301.87 344.5,323.5C 344.5,322.833 344.167,322.5 343.5,322.5C 360.827,300.876 371.16,276.209 374.5,248.5 Z"/></g>
<g><path style="opacity:1" fill="#3b9bcc" d="M 176.5,267.5 C 176.052,269.465 175.052,269.798 173.5,268.5C 174.325,267.614 175.325,267.281 176.5,267.5 Z"/></g>
<g><path style="opacity:1" fill="#3689bc" d="M 176.5,270.5 C 180.31,271.754 180.31,272.754 176.5,273.5C 176.5,272.5 176.5,271.5 176.5,270.5 Z"/></g>
<g><path style="opacity:1" fill="#378dbf" d="M 179.5,274.5 C 181.337,274.639 181.67,275.306 180.5,276.5C 179.702,276.043 179.369,275.376 179.5,274.5 Z"/></g>
<g><path style="opacity:1" fill="#3995c6" d="M 181.5,279.5 C 182.251,278.427 183.251,278.26 184.5,279C 183.648,280.728 182.648,280.895 181.5,279.5 Z"/></g>
<g><path style="opacity:1" fill="#29578d" d="M 185.5,281.5 C 188.797,281.329 189.131,281.995 186.5,283.5C 185.702,283.043 185.369,282.376 185.5,281.5 Z"/></g>
<g><path style="opacity:1" fill="#3993c5" d="M 190.5,282.5 C 194.31,283.754 194.31,284.754 190.5,285.5C 190.5,284.5 190.5,283.5 190.5,282.5 Z"/></g>
<g><path style="opacity:1" fill="#3b98c9" d="M 196.5,282.5 C 198.048,282.821 198.715,283.821 198.5,285.5C 195.752,285.598 195.086,284.598 196.5,282.5 Z"/></g>
<g><path style="opacity:1" fill="#0c1850" d="M 87.5,253.5 C 87.8333,253.5 88.1667,253.5 88.5,253.5C 91.7764,274.994 99.4431,294.661 111.5,312.5C 110.833,312.5 110.5,312.833 110.5,313.5C 97.8469,295.508 90.1803,275.508 87.5,253.5 Z"/></g>
<g><path style="opacity:1" fill="#2a80bb" d="M 127.5,238.5 C 127.833,238.5 128.167,238.5 128.5,238.5C 135.251,288.584 163.251,319.25 212.5,330.5C 212.158,331.338 211.492,331.672 210.5,331.5C 190.057,328.084 172.557,319.084 158,304.5C 156.226,305.965 154.392,307.298 152.5,308.5C 153.263,306.433 154.596,304.766 156.5,303.5C 155.675,302.614 154.675,302.281 153.5,302.5C 153.649,301.448 153.483,300.448 153,299.5C 148.274,304.434 143.107,308.767 137.5,312.5C 141.721,307.819 146.221,303.486 151,299.5C 151.688,298.668 151.521,298.002 150.5,297.5C 143.48,303.523 136.48,309.523 129.5,315.5C 135.764,308.569 142.431,301.902 149.5,295.5C 135.939,278.941 128.606,259.941 127.5,238.5 Z"/></g>
<g><path style="opacity:1" fill="#41b3e5" d="M 216.5,281.5 C 217.824,292.674 217.824,304.007 216.5,315.5C 215.191,304.105 215.191,292.772 216.5,281.5 Z"/></g>
<g><path style="opacity:1" fill="#3eaadc" d="M 240.5,281.5 C 241.458,281.953 242.292,282.619 243,283.5C 243.5,294.161 243.667,304.828 243.5,315.5C 242.5,315.5 241.5,315.5 240.5,315.5C 240.5,304.167 240.5,292.833 240.5,281.5 Z"/></g>
<g><path style="opacity:1" fill="#0a1852" d="M 45.5,255.5 C 50.002,284.841 60.502,311.841 77,336.5C 78.3561,337.38 79.8561,337.714 81.5,337.5C 79.7354,338.461 77.7354,338.795 75.5,338.5C 59.6684,314.137 49.3351,287.47 44.5,258.5C 45.404,257.791 45.7373,256.791 45.5,255.5 Z"/></g>
<g><path style="opacity:1" fill="#378fc2" d="M 227.5,280.5 C 228.5,280.5 229.5,280.5 230.5,280.5C 230.5,292.5 230.5,304.5 230.5,316.5C 229.5,316.5 228.5,316.5 227.5,316.5C 227.5,304.5 227.5,292.5 227.5,280.5 Z"/></g>
<g><path style="opacity:1" fill="#2c85bf" d="M 299.5,304.5 C 299.5,305.167 299.5,305.833 299.5,306.5C 296.993,306.632 296.326,307.632 297.5,309.5C 295.315,309.704 293.315,310.37 291.5,311.5C 293.825,308.846 296.492,306.512 299.5,304.5 Z"/></g>
<g><path style="opacity:1" fill="#2677b3" d="M 305.5,298.5 C 305.491,300.308 305.991,301.975 307,303.5C 313.436,309.429 319.269,315.763 324.5,322.5C 317.641,316.145 310.808,309.478 304,302.5C 302.743,302.85 302.409,303.517 303,304.5C 306.773,307.764 309.94,311.43 312.5,315.5C 308.441,311.435 304.107,307.768 299.5,304.5C 300.945,302.867 302.279,301.034 303.5,299C 304.094,298.536 304.761,298.369 305.5,298.5 Z"/></g>
<g><path style="opacity:1" fill="#267ebb" d="M 152.5,308.5 C 150.1,311.903 147.1,314.57 143.5,316.5C 145.9,313.097 148.9,310.43 152.5,308.5 Z"/></g>
<g><path style="opacity:1" fill="#2b88c4" d="M 299.5,306.5 C 301.833,308.167 303.833,310.167 305.5,312.5C 302.5,311.5 300.5,309.5 299.5,306.5 Z"/></g>
<g><path style="opacity:1" fill="#09154f" d="M 415.5,262.5 C 415.328,263.492 415.662,264.158 416.5,264.5C 410.012,295.793 397.345,324.126 378.5,349.5C 377.833,349.167 377.167,348.833 376.5,348.5C 381.784,341.819 386.618,334.819 391,327.5C 402.625,307.122 410.792,285.455 415.5,262.5 Z"/></g>
<g><path style="opacity:1" fill="#2479b7" d="M 305.5,312.5 C 309.898,315.895 313.564,319.895 316.5,324.5C 312.102,321.105 308.436,317.105 305.5,312.5 Z"/></g>
<g><path style="opacity:1" fill="#2c84be" d="M 291.5,311.5 C 289.996,313.836 287.996,315.669 285.5,317C 273.645,323.897 260.979,328.73 247.5,331.5C 246.508,331.672 245.842,331.338 245.5,330.5C 262.281,327.436 277.614,321.103 291.5,311.5 Z"/></g>
<g><path style="opacity:1" fill="#2579b7" d="M 297.5,309.5 C 305.174,316.175 312.174,323.508 318.5,331.5C 310.826,324.825 303.826,317.492 297.5,309.5 Z"/></g>
<g><path style="opacity:1" fill="#1e73b5" d="M 129.5,315.5 C 126.789,319.212 123.456,322.212 119.5,324.5C 119.414,323.504 119.748,322.671 120.5,322C 123.397,319.59 126.397,317.423 129.5,315.5 Z"/></g>
<g><path style="opacity:1" fill="#1e73b6" d="M 324.5,322.5 C 328.898,325.895 332.564,329.895 335.5,334.5C 331.102,331.105 327.436,327.105 324.5,322.5 Z"/></g>
<g><path style="opacity:1" fill="#070f44" d="M 153.5,302.5 C 154.675,302.281 155.675,302.614 156.5,303.5C 154.596,304.766 153.263,306.433 152.5,308.5C 148.9,310.43 145.9,313.097 143.5,316.5C 132.581,324.94 122.581,334.273 113.5,344.5C 109.9,346.43 106.9,349.097 104.5,352.5C 100.148,355.857 95.8147,359.191 91.5,362.5C 91.1667,362.5 90.8333,362.5 90.5,362.5C 93.8333,358.833 97.1667,355.167 100.5,351.5C 97.9066,352.754 95.5732,354.42 93.5,356.5C 93.5,355.833 93.1667,355.5 92.5,355.5C 94.2194,353.456 95.8861,351.456 97.5,349.5C 101.1,347.57 104.1,344.903 106.5,341.5C 115.332,333.503 124.332,325.669 133.5,318C 135.464,316.549 136.797,314.716 137.5,312.5C 143.107,308.767 148.274,304.434 153,299.5C 153.483,300.448 153.649,301.448 153.5,302.5 Z"/></g>
<g><path style="opacity:1" fill="#1c67a8" d="M 133.5,321.5 C 131.1,324.903 128.1,327.57 124.5,329.5C 126.9,326.097 129.9,323.43 133.5,321.5 Z"/></g>
<g><path style="opacity:1" fill="#2380c1" d="M 136.5,318.5 C 135.833,319.833 134.833,320.833 133.5,321.5C 133.5,319.5 134.5,318.5 136.5,318.5 Z"/></g>
<g><path style="opacity:1" fill="#257dbc" d="M 136.5,318.5 C 139.577,314.254 143.244,310.421 147.5,307C 148.332,306.312 148.998,306.479 149.5,307.5C 145.441,311.565 141.107,315.232 136.5,318.5 Z"/></g>
<g><path style="opacity:1" fill="#2a85c0" d="M 153.5,302.5 C 153.489,304.686 152.489,305.519 150.5,305C 151.373,303.955 152.373,303.122 153.5,302.5 Z"/></g>
<g><path style="opacity:1" fill="#2179b9" d="M 316.5,324.5 C 318.816,325.422 320.483,327.089 321.5,329.5C 319.184,328.578 317.517,326.911 316.5,324.5 Z"/></g>
<g><path style="opacity:1" fill="#1a70b5" d="M 119.5,324.5 C 117.126,327.874 114.126,330.541 110.5,332.5C 112.9,329.097 115.9,326.43 119.5,324.5 Z"/></g>
<g><path style="opacity:1" fill="#1d73b7" d="M 137.5,312.5 C 136.797,314.716 135.464,316.549 133.5,318C 124.332,325.669 115.332,333.503 106.5,341.5C 115.804,330.867 126.137,321.2 137.5,312.5 Z"/></g>
<g><path style="opacity:1" fill="#1d71b4" d="M 143.5,316.5 C 134.419,326.727 124.419,336.06 113.5,344.5C 122.581,334.273 132.581,324.94 143.5,316.5 Z"/></g>
<g><path style="opacity:1" fill="#2480c1" d="M 212.5,330.5 C 223.47,331.813 234.47,331.813 245.5,330.5C 245.842,331.338 246.508,331.672 247.5,331.5C 243.702,332.483 239.702,332.817 235.5,332.5C 234.508,332.328 233.842,332.662 233.5,333.5C 231.673,363.15 230.839,393.15 231,423.5C 231.161,393.15 230.327,363.15 228.5,333.5C 227.833,332.167 227.167,332.167 226.5,333.5C 224.836,363.319 223.836,393.319 223.5,423.5C 223.667,393.498 223.5,363.498 223,333.5C 218.732,332.86 214.565,332.193 210.5,331.5C 211.492,331.672 212.158,331.338 212.5,330.5 Z"/></g>
<g><path style="opacity:1" fill="#1a6fb4" d="M 124.5,329.5 C 122.807,332.19 120.473,334.19 117.5,335.5C 119.219,332.781 121.553,330.781 124.5,329.5 Z"/></g>
<g><path style="opacity:1" fill="#1e67a7" d="M 318.5,331.5 C 320.5,331.5 321.5,332.5 321.5,334.5C 321.5,332.5 320.5,331.5 318.5,331.5 Z"/></g>
<g><path style="opacity:1" fill="#1c72b5" d="M 321.5,329.5 C 326.894,333.892 331.561,338.892 335.5,344.5C 330.106,340.108 325.439,335.108 321.5,329.5 Z"/></g>
<g><path style="opacity:1" fill="#176db5" d="M 110.5,332.5 C 110.631,333.239 110.464,333.906 110,334.5C 107.966,335.721 106.133,337.055 104.5,338.5C 105.562,335.622 107.562,333.622 110.5,332.5 Z"/></g>
<g><path style="opacity:1" fill="#2499de" d="M 211.5,374.5 C 183.1,370.463 158.1,359.13 136.5,340.5C 140.566,336.096 144.9,332.096 149.5,328.5C 167.327,341.906 187.327,350.74 209.5,355C 210.624,355.839 211.291,357.006 211.5,358.5C 210.169,363.847 210.169,369.18 211.5,374.5 Z"/></g>
<g><path style="opacity:1" fill="#1c81c8" d="M 335.5,334.5 C 337.833,334.833 339.167,336.167 339.5,338.5C 337.833,337.5 336.5,336.167 335.5,334.5 Z"/></g>
<g><path style="opacity:1" fill="#1568b0" d="M 339.5,338.5 C 341.516,339.456 343.349,340.79 345,342.5C 350.703,348.7 356.203,355.033 361.5,361.5C 353.514,354.513 346.181,346.846 339.5,338.5 Z"/></g>
<g><path style="opacity:1" fill="#1770b9" d="M 117.5,335.5 C 116.797,337.716 115.464,339.549 113.5,341C 109.273,344.737 104.94,348.237 100.5,351.5C 105.49,345.512 111.157,340.179 117.5,335.5 Z"/></g>
<g><path style="opacity:1" fill="#1677c2" d="M 104.5,338.5 C 102.798,341.395 100.464,343.228 97.5,344C 99.4412,341.546 101.775,339.713 104.5,338.5 Z"/></g>
<g><path style="opacity:1" fill="#1467af" d="M 106.5,341.5 C 104.1,344.903 101.1,347.57 97.5,349.5C 99.8998,346.097 102.9,343.43 106.5,341.5 Z"/></g>
<g><path style="opacity:1" fill="#2499de" d="M 316.5,348.5 C 300.836,358.995 283.836,366.829 265.5,372C 259.267,373.642 252.934,374.475 246.5,374.5C 246.5,368.167 246.5,361.833 246.5,355.5C 267.223,353.38 286.056,346.38 303,334.5C 307.663,338.997 312.163,343.663 316.5,348.5 Z"/></g>
<g><path style="opacity:1" fill="#1c7ac0" d="M 321.5,334.5 C 326.562,338.559 330.895,343.226 334.5,348.5C 329.488,344.487 325.155,339.821 321.5,334.5 Z"/></g>
<g><path style="opacity:1" fill="#136bb6" d="M 90.5,351.5 C 91.8022,349.31 93.4689,347.31 95.5,345.5C 96.521,346.002 96.6877,346.668 96,347.5C 94.2258,348.965 92.3925,350.298 90.5,351.5 Z"/></g>
<g><path style="opacity:1" fill="#156cb4" d="M 113.5,344.5 C 111.1,347.903 108.1,350.57 104.5,352.5C 106.9,349.097 109.9,346.43 113.5,344.5 Z"/></g>
<g><path style="opacity:1" fill="#1b93de" d="M 135.5,341.5 C 157.332,360.459 182.665,372.125 211.5,376.5C 211.5,378.5 211.5,380.5 211.5,382.5C 211.666,386.846 211.499,391.179 211,395.5C 180.009,391.399 152.176,379.899 127.5,361C 124.572,358.91 122.239,356.41 120.5,353.5C 124.893,348.777 129.893,344.777 135.5,341.5 Z"/></g>
<g><path style="opacity:1" fill="#1662a9" d="M 334.5,348.5 C 335.239,348.369 335.906,348.536 336.5,349C 340.625,353.438 344.625,357.938 348.5,362.5C 347.761,362.631 347.094,362.464 346.5,362C 342.052,357.678 338.052,353.178 334.5,348.5 Z"/></g>
<g><path style="opacity:1" fill="#1169b4" d="M 97.5,349.5 C 95.8861,351.456 94.2194,353.456 92.5,355.5C 91.0384,356.458 89.7051,357.624 88.5,359C 87.8333,359.667 87.1667,359.667 86.5,359C 89.7438,355.25 93.4105,352.083 97.5,349.5 Z"/></g>
<g><path style="opacity:1" fill="#0c1952" d="M 136.5,340.5 C 158.1,359.13 183.1,370.463 211.5,374.5C 211.5,375.167 211.5,375.833 211.5,376.5C 182.665,372.125 157.332,360.459 135.5,341.5C 136.167,341.5 136.5,341.167 136.5,340.5 Z"/></g>
<g><path style="opacity:1" fill="#1b93dd" d="M 316.5,349.5 C 321.92,352.555 326.587,356.555 330.5,361.5C 319.756,371.287 307.422,378.787 293.5,384C 278.457,390.177 262.79,394.011 246.5,395.5C 246.5,389.5 246.5,383.5 246.5,377.5C 247.209,376.596 248.209,376.263 249.5,376.5C 274.448,373.378 296.782,364.378 316.5,349.5 Z"/></g>
<g><path style="opacity:1" fill="#081046" d="M 324.5,322.5 C 327.436,327.105 331.102,331.105 335.5,334.5C 336.5,336.167 337.833,337.5 339.5,338.5C 346.181,346.846 353.514,354.513 361.5,361.5C 364.954,362.25 365.287,363.75 362.5,366C 363.943,368.078 363.276,368.911 360.5,368.5C 352.488,360.946 344.821,353.113 337.5,345C 336.906,344.536 336.239,344.369 335.5,344.5C 331.561,338.892 326.894,333.892 321.5,329.5C 320.483,327.089 318.816,325.422 316.5,324.5C 313.564,319.895 309.898,315.895 305.5,312.5C 303.833,310.167 301.833,308.167 299.5,306.5C 299.5,305.833 299.5,305.167 299.5,304.5C 304.107,307.768 308.441,311.435 312.5,315.5C 309.94,311.43 306.773,307.764 303,304.5C 302.409,303.517 302.743,302.85 304,302.5C 310.808,309.478 317.641,316.145 324.5,322.5 Z"/></g>
<g><path style="opacity:1" fill="#186bb2" d="M 334.5,338.5 C 335.239,338.369 335.906,338.536 336.5,339C 340.625,343.438 344.625,347.938 348.5,352.5C 347.761,352.631 347.094,352.464 346.5,352C 342.635,347.306 338.635,342.806 334.5,338.5 Z"/></g>
<g><path style="opacity:1" fill="#1e7bbe" d="M 321.5,324.5 C 326.534,328.533 330.867,333.2 334.5,338.5C 329.438,334.441 325.105,329.774 321.5,324.5 Z"/></g>
<g><path style="opacity:1" fill="#2279b9" d="M 321.5,324.5 C 319.663,324.361 319.33,323.694 320.5,322.5C 321.298,322.957 321.631,323.624 321.5,324.5 Z"/></g>
<g><path style="opacity:1" fill="#247cbb" d="M 312.5,315.5 C 315.069,316.396 317.069,318.062 318.5,320.5C 316.161,319.884 314.161,318.218 312.5,315.5 Z"/></g>
<g><path style="opacity:1" fill="#0f60ab" d="M 90.5,351.5 C 89.0401,353.463 87.3734,355.296 85.5,357C 84.6683,357.688 84.0016,357.521 83.5,356.5C 85.5916,354.395 87.9249,352.728 90.5,351.5 Z"/></g>
<g><path style="opacity:1" fill="#2483c2" d="M 228.5,333.5 C 228.5,351.833 228.5,370.167 228.5,388.5C 227.833,379.5 227.167,370.5 226.5,361.5C 226.5,352.167 226.5,342.833 226.5,333.5C 227.167,332.167 227.833,332.167 228.5,333.5 Z"/></g>
<g><path style="opacity:1" fill="#1169b4" d="M 104.5,352.5 C 101.086,356.417 97.4196,360.251 93.5,364C 92.184,364.528 91.5173,364.028 91.5,362.5C 95.8147,359.191 100.148,355.857 104.5,352.5 Z"/></g>
<g><path style="opacity:1" fill="#158edd" d="M 120.5,353.5 C 122.239,356.41 124.572,358.91 127.5,361C 152.176,379.899 180.009,391.399 211,395.5C 211.499,391.179 211.666,386.846 211.5,382.5C 212.656,389.989 212.822,397.655 212,405.5C 211.148,406.571 210.315,407.571 209.5,408.5C 172.179,404.579 139.679,390.245 112,365.5C 111.517,364.552 111.351,363.552 111.5,362.5C 113.478,358.522 116.478,355.522 120.5,353.5 Z"/></g>
<g><path style="opacity:1" fill="#1368b2" d="M 335.5,344.5 C 336.239,344.369 336.906,344.536 337.5,345C 344.821,353.113 352.488,360.946 360.5,368.5C 361.562,369.575 361.562,370.575 360.5,371.5C 351.777,362.78 343.444,353.78 335.5,344.5 Z"/></g>
<g><path style="opacity:1" fill="#106ab7" d="M 100.5,351.5 C 97.1667,355.167 93.8333,358.833 90.5,362.5C 89.7611,362.631 89.0944,362.464 88.5,362C 90.3734,360.296 92.0401,358.463 93.5,356.5C 95.5732,354.42 97.9066,352.754 100.5,351.5 Z"/></g>
<g><path style="opacity:1" fill="#126bb5" d="M 348.5,352.5 C 353.031,355.847 356.531,359.847 359,364.5C 354.896,360.905 351.396,356.905 348.5,352.5 Z"/></g>
<g><path style="opacity:1" fill="#1189d9" d="M 111.5,362.5 C 111.351,363.552 111.517,364.552 112,365.5C 139.679,390.245 172.179,404.579 209.5,408.5C 208.419,410.764 207.085,412.931 205.5,415C 203.527,415.495 201.527,415.662 199.5,415.5C 165.933,409.049 135.933,395.049 109.5,373.5C 109.43,369.575 110.097,365.909 111.5,362.5 Z"/></g>
<g><path style="opacity:1" fill="#148cdb" d="M 330.5,361.5 C 332.797,363.294 334.963,365.294 337,367.5C 338.838,373.151 339.338,378.817 338.5,384.5C 317.017,398.286 293.684,408.119 268.5,414C 263.22,415.095 257.887,415.595 252.5,415.5C 250.095,412.366 247.928,409.032 246,405.5C 245.176,395.991 245.342,386.657 246.5,377.5C 246.5,383.5 246.5,389.5 246.5,395.5C 262.79,394.011 278.457,390.177 293.5,384C 307.422,378.787 319.756,371.287 330.5,361.5 Z"/></g>
<g><path style="opacity:1" fill="#1160aa" d="M 348.5,362.5 C 352.702,365.516 355.869,369.183 358,373.5C 354.286,370.287 351.119,366.621 348.5,362.5 Z"/></g>
<g><path style="opacity:1" fill="#0b154e" d="M 316.5,348.5 C 316.5,348.833 316.5,349.167 316.5,349.5C 296.782,364.378 274.448,373.378 249.5,376.5C 248.5,375.833 247.5,375.167 246.5,374.5C 252.934,374.475 259.267,373.642 265.5,372C 283.836,366.829 300.836,358.995 316.5,348.5 Z"/></g>
<g><path style="opacity:1" fill="#0f84d5" d="M 107.5,374.5 C 121.169,384.662 135.502,393.829 150.5,402C 158.268,404.717 165.935,407.717 173.5,411C 181.454,413.154 189.454,414.987 197.5,416.5C 199.435,417.15 201.435,417.483 203.5,417.5C 202.69,420.646 200.69,422.313 197.5,422.5C 164.096,416.547 134.263,402.88 108,381.5C 107.51,380.207 107.343,378.873 107.5,377.5C 107.5,376.5 107.5,375.5 107.5,374.5 Z"/></g>
<g><path style="opacity:1" fill="#0f82d4" d="M 340.5,385.5 C 341.138,387.46 341.138,389.293 340.5,391C 315.351,408.799 287.351,419.299 256.5,422.5C 255.847,421.193 255.18,419.86 254.5,418.5C 255.325,417.614 256.325,417.281 257.5,417.5C 278.927,414.302 299.26,407.802 318.5,398C 325.726,393.556 333.059,389.39 340.5,385.5 Z"/></g>
<g><path style="opacity:1" fill="#08164d" d="M 338.5,384.5 C 339.492,384.328 340.158,384.662 340.5,385.5C 333.059,389.39 325.726,393.556 318.5,398C 299.26,407.802 278.927,414.302 257.5,417.5C 256.081,416.549 254.415,416.216 252.5,416.5C 252.5,416.167 252.5,415.833 252.5,415.5C 257.887,415.595 263.22,415.095 268.5,414C 293.684,408.119 317.017,398.286 338.5,384.5 Z"/></g>
<g><path style="opacity:1" fill="#1c7abf" d="M 235.5,332.5 C 235.5,362.833 235.5,393.167 235.5,423.5C 233.508,393.852 232.841,363.852 233.5,333.5C 233.842,332.662 234.508,332.328 235.5,332.5 Z"/></g>
<g><path style="opacity:1" fill="#071045" d="M 107.5,377.5 C 107.343,378.873 107.51,380.207 108,381.5C 134.263,402.88 164.096,416.547 197.5,422.5C 198.694,423.272 199.694,424.272 200.5,425.5C 164.558,420.019 132.891,405.685 105.5,382.5C 106.167,380.833 106.833,379.167 107.5,377.5 Z"/></g>
<g><path style="opacity:1" fill="#091951" d="M 107.5,374.5 C 107.842,373.662 108.508,373.328 109.5,373.5C 135.933,395.049 165.933,409.049 199.5,415.5C 198.508,415.328 197.842,415.662 197.5,416.5C 189.454,414.987 181.454,413.154 173.5,411C 165.935,407.717 158.268,404.717 150.5,402C 135.502,393.829 121.169,384.662 107.5,374.5 Z"/></g>
<g><path style="opacity:1" fill="#07002e" d="M -0.5,414.5 C 2.12674,415.105 4.79341,415.605 7.5,416C 45.1667,416.333 82.8333,416.667 120.5,417C 125.53,420.175 130.863,422.675 136.5,424.5C 145.564,429.079 154.898,433.079 164.5,436.5C 109.477,436.817 54.477,436.483 -0.5,435.5C -0.5,428.5 -0.5,421.5 -0.5,414.5 Z"/></g>
<g><path style="opacity:1" fill="#07002e" d="M 459.5,414.5 C 459.5,421.5 459.5,428.5 459.5,435.5C 405.196,436.487 350.863,436.821 296.5,436.5C 306.733,432.717 316.733,428.384 326.5,423.5C 330.871,421.483 335.205,419.316 339.5,417C 377.167,416.667 414.833,416.333 452.5,416C 454.866,415.56 457.199,415.06 459.5,414.5 Z"/></g>
<g><path style="opacity:1" fill="#060f3e" d="M 226.5,333.5 C 226.5,342.833 226.5,352.167 226.5,361.5C 226.167,382.177 226.5,402.844 227.5,423.5C 228.499,411.852 228.832,400.186 228.5,388.5C 228.5,370.167 228.5,351.833 228.5,333.5C 230.327,363.15 231.161,393.15 231,423.5C 230.839,393.15 231.673,363.15 233.5,333.5C 232.841,363.852 233.508,393.852 235.5,423.5C 236.468,421.393 236.802,419.059 236.5,416.5C 241.833,416.5 247.167,416.5 252.5,416.5C 254.415,416.216 256.081,416.549 257.5,417.5C 256.325,417.281 255.325,417.614 254.5,418.5C 255.18,419.86 255.847,421.193 256.5,422.5C 257.551,423.222 258.218,424.222 258.5,425.5C 239.168,428.167 219.835,428.167 200.5,425.5C 199.694,424.272 198.694,423.272 197.5,422.5C 200.69,422.313 202.69,420.646 203.5,417.5C 209.645,416.51 215.978,416.177 222.5,416.5C 222.198,419.059 222.532,421.393 223.5,423.5C 223.836,393.319 224.836,363.319 226.5,333.5 Z"/></g>
<g><path style="opacity:1" fill="#1670b7" d="M 226.5,361.5 C 227.167,370.5 227.833,379.5 228.5,388.5C 228.832,400.186 228.499,411.852 227.5,423.5C 226.5,402.844 226.167,382.177 226.5,361.5 Z"/></g>
<g><path style="opacity:1" fill="#070736" d="M 153.5,421.5 C 203.354,439.819 253.354,440.153 303.5,422.5C 311.111,423.434 318.778,423.767 326.5,423.5C 316.733,428.384 306.733,432.717 296.5,436.5C 285.324,438.855 274.324,441.522 263.5,444.5C 252.303,444.658 241.137,445.324 230,446.5C 218.868,445.241 207.702,444.574 196.5,444.5C 186.058,441.472 175.391,438.805 164.5,436.5C 154.898,433.079 145.564,429.079 136.5,424.5C 142.653,423.672 148.987,423.172 155.5,423C 154.584,422.722 153.918,422.222 153.5,421.5 Z"/></g>
<g><path style="opacity:1" fill="#070029" d="M -0.5,435.5 C 54.477,436.483 109.477,436.817 164.5,436.5C 175.391,438.805 186.058,441.472 196.5,444.5C 130.833,444.5 65.1667,444.5 -0.5,444.5C -0.5,441.5 -0.5,438.5 -0.5,435.5 Z"/></g>
<g><path style="opacity:1" fill="#070029" d="M 459.5,435.5 C 459.5,438.5 459.5,441.5 459.5,444.5C 394.167,444.5 328.833,444.5 263.5,444.5C 274.324,441.522 285.324,438.855 296.5,436.5C 350.863,436.821 405.196,436.487 459.5,435.5 Z"/></g>
<g><path style="opacity:1" fill="#060027" d="M -0.5,444.5 C 65.1667,444.5 130.833,444.5 196.5,444.5C 207.702,444.574 218.868,445.241 230,446.5C 241.137,445.324 252.303,444.658 263.5,444.5C 328.833,444.5 394.167,444.5 459.5,444.5C 459.5,446.5 459.5,448.5 459.5,450.5C 306.179,451.832 152.846,451.832 -0.5,450.5C -0.5,448.5 -0.5,446.5 -0.5,444.5 Z"/></g>
<g><path style="opacity:1" fill="#050023" d="M -0.5,450.5 C 152.846,451.832 306.179,451.832 459.5,450.5C 459.5,453.5 459.5,456.5 459.5,459.5C 306.167,459.5 152.833,459.5 -0.5,459.5C -0.5,456.5 -0.5,453.5 -0.5,450.5 Z"/></g>
</svg>
